<svg xmlns="http://www.w3.org/2000/svg" xmlns:xlink="http://www.w3.org/1999/xlink" width="612" height="38" viewBox="0 0 612 38">
    <defs>
        <path id="a" d="M63.378 1L5.123 34.633l2.52 4.365L6 39a5 5 0 0 1-5-5V18.54L31.38 1h31.998zM408.98 1l-65.818 38h-32l65.817-38h32.001zM608 1a5 5 0 0 1 5 5v10.23L573.56 39h-31.999L607.38 1h.62zm-83.819 0l-65.818 38h-32.002l65.82-38h32zm-57.6 0l-65.819 38h-32L434.58 1h32zm146.418 30.01L613 34a5 5 0 0 1-5 5h-8.839L613 31.01zM581.78 1l-65.818 38h-31.999l65.818-38h32zM178.578 1L112.76 39H80.761L146.58 1h32zM293.78 1l-65.818 38h-31.999L261.78 1h32zM236.18 1l-65.818 38h-32L204.18 1h32zm-115.2 0L55.16 39h-32L88.977 1h32.001zm230.4 0L285.56 39h-31.999L319.38 1h32zM5.77 1.004a5.045 5.045 0 0 0-.202.013z"/>
    </defs>
    <use fill="#F8F6FF" fill-rule="evenodd" transform="translate(-1 -1)" xlink:href="#a"/>
</svg>
