<svg xmlns="http://www.w3.org/2000/svg" width="34" height="34" viewBox="0 0 34 34">
    <defs>
        <filter id="a" width="127.2%" height="128.5%" x="-13.6%" y="-16%" filterUnits="objectBoundingBox">
            <feColorMatrix in="shadowBlurOuter1" result="shadowMatrixOuter1" values="0 0 0 0 0 0 0 0 0 0 0 0 0 0 0 0 0 0 0.5 0"/>
            <feMerge>
                <feMergeNode in="shadowMatrixOuter1"/>
                <feMergeNode in="SourceGraphic"/>
            </feMerge>
        </filter>
    </defs>
    <g fill="none" fill-rule="nonzero" filter="url(#a)" transform="translate(-111 -134)">
        <path fill="#FFC44D" d="M137.595 138.704v11.805c0 .325 0 .352-2.44 4.005-.782 1.172-1.75 2.621-1.914 2.92a.103.103 0 0 1-.005.014l-.012.025a.394.394 0 0 1-.018.04l-.013.023a.701.701 0 0 1-.025.042l-.011.017a.824.824 0 0 1-.097.114l-3.887 3.777a1.74 1.74 0 0 1-2.435 0l-3.887-3.777-.007-.008a.758.758 0 0 1-.04-.041l-.012-.014a.911.911 0 0 1-.037-.05l-.004-.006a.734.734 0 0 1-.036-.058l-.009-.017a.499.499 0 0 1-.03-.065l-.006-.015c-.164-.3-1.132-1.75-1.914-2.92-2.44-3.654-2.44-3.68-2.44-4.006v-11.805c0-.944.481-1.8 1.287-2.292a2.666 2.666 0 0 1 2.623-.098l.004.003a12.498 12.498 0 0 0 5.82 1.383 12.498 12.498 0 0 0 5.63-1.383 2.665 2.665 0 0 1 2.628.095 2.666 2.666 0 0 1 1.287 2.292z"/>
        <path fill="#FF9D3B" d="M137.595 138.704v11.805c0 .325 0 .352-2.44 4.005-.782 1.172-1.75 2.621-1.914 2.92a.103.103 0 0 1-.005.014l-.012.025a.394.394 0 0 1-.018.04l-.013.023a.701.701 0 0 1-.025.042l-.011.017a.824.824 0 0 1-.097.114l-3.887 3.777a1.74 1.74 0 0 1-1.122.495V137.7a12.498 12.498 0 0 0 5.63-1.383 2.665 2.665 0 0 1 2.627.095 2.666 2.666 0 0 1 1.287 2.292z"/>
        <path fill="#DCE1EB" d="M140.797 157.005c-.3.567-.85.92-1.493.92h-22.572a1.725 1.725 0 0 1-1.536-.933 1.726 1.726 0 0 1 .118-1.793l.778-.975-.794-1.091a1.728 1.728 0 0 1-.095-1.782c.3-.567.887-.92 1.529-.92h22.535c.648 0 1.236.358 1.535.933.3.575.254 1.262-.118 1.793l-.683.975.701 1.091c.36.533.396 1.215.095 1.782z"/>
        <path fill="#CDD2E1" d="M140.797 157.005c-.3.567-.85.92-1.493.92h-11.253v-7.493h11.216c.648 0 1.236.357 1.535.932.3.575.254 1.262-.118 1.792l-.683.976.701 1.091c.36.533.396 1.215.095 1.782z"/>
    </g>
</svg>
