<svg xmlns="http://www.w3.org/2000/svg" width="26" height="28" viewBox="0 0 26 28">
    <defs>
        <filter id="a" width="128.5%" height="126.5%" x="-14.2%" y="-19%" filterUnits="objectBoundingBox">
            <feMerge>
                <feMergeNode in="shadowMatrixOuter1"/>
                <feMergeNode in="SourceGraphic"/>
            </feMerge>
        </filter>
    </defs>
    <path fill="none" fill-rule="nonzero" stroke="#000" stroke-width="1.3" d="M224 179.35a2.65 2.65 0 0 1 2.65 2.65v12a2.65 2.65 0 0 1-2.65 2.65h-10a2.65 2.65 0 0 1-2.65-2.65v-12a2.65 2.65 0 0 1 2.65-2.65h10zm-1.824 11.7h-6.352c-.057 0-.115.06-.115.15s.058.15.115.15h6.352c.057 0 .115-.06.115-.15s-.058-.15-.115-.15zm0-3.2h-6.352c-.057 0-.115.06-.115.15s.058.15.115.15h6.352c.057 0 .115-.06.115-.15s-.058-.15-.115-.15zm0-3.2h-6.352c-.057 0-.115.06-.115.15s.058.15.115.15h6.352c.057 0 .115-.06.115-.15s-.058-.15-.115-.15z" filter="url(#a)" transform="translate(-206 -176)"/>
</svg>
