<svg xmlns="http://www.w3.org/2000/svg" width="29" height="38" viewBox="0 0 29 38">
    <defs>
        <filter id="a" width="127.2%" height="128.5%" x="-13.6%" y="-16%" filterUnits="objectBoundingBox">
            <feColorMatrix in="shadowBlurOuter1" result="shadowMatrixOuter1" values="0 0 0 0 0 0 0 0 0 0 0 0 0 0 0 0 0 0 0.5 0"/>
            <feMerge>
                <feMergeNode in="shadowMatrixOuter1"/>
                <feMergeNode in="SourceGraphic"/>
            </feMerge>
        </filter>
    </defs>
    <g fill="none" fill-rule="nonzero" filter="url(#a)" transform="translate(-323 -142)">
        <path fill="#FF873C" d="M345.493 160.44v11.469c0 .731-.373 1.397-.996 1.78a2.074 2.074 0 0 1-2.039.083l-2.066-1.05-2.93-1.486a.333.333 0 0 0-.3 0l-2.975 1.51-2.02 1.026a2.083 2.083 0 0 1-2.039-.083 2.075 2.075 0 0 1-.996-1.78v-11.47a.88.88 0 0 1 .879-.879H344.614c.486 0 .88.394.88.88z"/>
        <path fill="#FA732D" d="M345.493 160.44v11.469c0 .731-.373 1.397-.996 1.78a2.074 2.074 0 0 1-2.039.083l-2.066-1.05-2.93-1.486a.31.31 0 0 0-.1-.032V159.56H344.614c.486 0 .88.394.88.88z"/>
        <path fill="#FF2121" d="M340.392 159.56v13.162l-2.93-1.486a.333.333 0 0 0-.3 0l-2.975 1.51V159.56h6.205z"/>
        <path fill="#CF0404" d="M340.392 159.56v13.162l-2.93-1.486a.31.31 0 0 0-.1-.032V159.56h3.03z"/>
        <path fill="#80DBFF" d="M347.609 154.297c0 5.661-4.592 10.27-10.247 10.297h-.05c-5.677 0-10.296-4.62-10.296-10.297 0-5.678 4.62-10.297 10.297-10.297h.049c5.655.027 10.247 4.636 10.247 10.297z"/>
        <g fill="#69A8FF">
            <path d="M347.609 154.297c0 5.661-4.592 10.27-10.247 10.297V144c5.655.027 10.247 4.636 10.247 10.297z"/>
            <path d="M344.334 154.297a7.029 7.029 0 0 1-6.972 7.02h-.05c-3.87 0-7.02-3.15-7.02-7.02a7.03 7.03 0 0 1 7.02-7.022h.05a7.029 7.029 0 0 1 6.972 7.022z"/>
        </g>
        <path fill="#3389FF" d="M344.334 154.297a7.029 7.029 0 0 1-6.972 7.02v-14.041a7.029 7.029 0 0 1 6.972 7.02z"/>
    </g>
</svg>
