<svg xmlns="http://www.w3.org/2000/svg" xmlns:xlink="http://www.w3.org/1999/xlink" width="227" height="188" viewBox="0 0 227 188">
    <defs>
        <filter id="prefix__a" width="175.3%" height="191%" x="-37.7%" y="-51.3%" filterUnits="objectBoundingBox">
            <feOffset dy="11" in="SourceAlpha" result="shadowOffsetOuter1"/>
            <feGaussianBlur in="shadowOffsetOuter1" result="shadowBlurOuter1" stdDeviation="11"/>
            <feColorMatrix in="shadowBlurOuter1" result="shadowMatrixOuter1" values="0 0 0 0 0.112829441 0 0 0 0 0.340758378 0 0 0 0 0.735563859 0 0 0 0.192280376 0"/>
            <feMerge>
                <feMergeNode in="shadowMatrixOuter1"/>
                <feMergeNode in="SourceGraphic"/>
            </feMerge>
        </filter>
        <filter id="prefix__b" width="145%" height="167.7%" x="-22.5%" y="-43.5%" filterUnits="objectBoundingBox">
            <feOffset dy="-11" in="SourceAlpha" result="shadowOffsetOuter1"/>
            <feGaussianBlur in="shadowOffsetOuter1" result="shadowBlurOuter1" stdDeviation="11"/>
            <feColorMatrix in="shadowBlurOuter1" values="0 0 0 0 0.062745098 0 0 0 0 0.196078431 0 0 0 0 0.42745098 0 0 0 0.04 0"/>
        </filter>
        <filter id="prefix__d" width="195.8%" height="308.7%" x="-47.9%" y="-134.2%" filterUnits="objectBoundingBox">
            <feOffset dy="-11" in="SourceAlpha" result="shadowOffsetOuter1"/>
            <feGaussianBlur in="shadowOffsetOuter1" result="shadowBlurOuter1" stdDeviation="11"/>
            <feColorMatrix in="shadowBlurOuter1" values="0 0 0 0 0.062745098 0 0 0 0 0.196078431 0 0 0 0 0.42745098 0 0 0 0.04 0"/>
        </filter>
        <filter id="prefix__f" width="217%" height="232.6%" x="-58.5%" y="-85.2%" filterUnits="objectBoundingBox">
            <feOffset dy="-11" in="SourceAlpha" result="shadowOffsetOuter1"/>
            <feGaussianBlur in="shadowOffsetOuter1" result="shadowBlurOuter1" stdDeviation="11"/>
            <feColorMatrix in="shadowBlurOuter1" values="0 0 0 0 0.062745098 0 0 0 0 0.196078431 0 0 0 0 0.42745098 0 0 0 0.04 0"/>
        </filter>
        <path id="prefix__c" d="M171.215 113.438c-37.783-.004-80.52 5.93-104.518-30.098-10.459-15.701-13.979-36.105-9.3-54.4 2.2-8.602 6.319-17.58 12.06-24.42 8.473-10.094 11.95-1.116 19.862 6.78 14.827 14.797 27.18 33.018 48.468 36.951 20.036 3.702 44.691 4.108 62.593 14.585 14.225 8.326 24.463 23.57 25.98 40.099 1.215 13.236-4.492 10.487-16.233 10.473-12.97-.015-25.942.032-38.912.03"/>
        <path id="prefix__e" d="M80.851 124.042c-18.963 1.2-38.288.19-57.296.155-14.97-.028-30.317 3.116-19.41-16.392 6.258-11.193 26.168-22.544 39.226-19.599 6.837 1.542 12.923 10.582 17.736 15.38 6.057 6.038 15.602 12.93 19.744 20.456"/>
        <path id="prefix__g" d="M221.218 130.797l-37.153 37.956c-2.815 2.876-15.143 19.202-18.689 19.095-6.034-.186-9.5-15.566-9.843-19.165-1.109-11.6 5.276-31.976 16.61-37.473 5.965-2.894 18.2-.554 24.853-.556 7.665-.001 16.71-1.31 24.222.143"/>
    </defs>
    <g fill="none" fill-rule="evenodd" filter="url(#prefix__a)" transform="translate(22 32)">
        <use fill="#000" filter="url(#prefix__b)" xlink:href="#prefix__c"/>
        <use fill="#10D69C" xlink:href="#prefix__c"/>
        <use fill="#000" filter="url(#prefix__d)" xlink:href="#prefix__e"/>
        <use fill="#286ADD" xlink:href="#prefix__e"/>
        <g>
            <use fill="#000" filter="url(#prefix__f)" xlink:href="#prefix__g"/>
            <use fill="#286ADD" xlink:href="#prefix__g"/>
        </g>
    </g>
</svg>
