<svg xmlns="http://www.w3.org/2000/svg" width="165" height="160" viewBox="0 0 165 160">
    <defs>
        <filter id="a" width="282.9%" height="292%" x="-91.4%" y="-96%" filterUnits="objectBoundingBox">
            <feOffset dy="20" in="SourceAlpha" result="shadowOffsetOuter1"/>
            <feGaussianBlur in="shadowOffsetOuter1" result="shadowBlurOuter1" stdDeviation="15"/>
            <feColorMatrix in="shadowBlurOuter1" result="shadowMatrixOuter1" values="0 0 0 0 0 0 0 0 0 0.120388131 0 0 0 0 0.328917572 0 0 0 0.351234703 0"/>
            <feMerge>
                <feMergeNode in="shadowMatrixOuter1"/>
                <feMergeNode in="SourceGraphic"/>
            </feMerge>
        </filter>
    </defs>
    <g fill="none" fill-rule="nonzero" filter="url(#a)" transform="translate(30 10)">
        <path fill="#C5D2E4" d="M0 39.39L52.295 8.34l52.295 31.05V85.15H0z"/>
        <path fill="#FFF" d="M11.44.17h81.71a3.278 3.278 0 0 1 3.269 3.268v57.197a3.278 3.278 0 0 1-3.269 3.269H11.44a3.278 3.278 0 0 1-3.269-3.269V3.438A3.278 3.278 0 0 1 11.439.169z"/>
        <path fill="#286ADD" d="M86.287 6.706l5.23-6.537h1.633a3.278 3.278 0 0 1 3.269 3.269v3.268H86.287zm-42.49 0l5.23-6.537h11.439l-5.23 6.537H43.798zm-35.626 0V3.438A3.278 3.278 0 0 1 11.44.169h8.17l-5.229 6.537h-6.21z"/>
        <path fill="#94A9C9" d="M104.59 94.954a4.917 4.917 0 0 1-4.903 4.902H4.903A4.917 4.917 0 0 1 0 94.954V39.39l52.295 22.88 52.295-22.88v55.564z"/>
        <path fill="#5F779C" d="M104.59 94.954a4.917 4.917 0 0 1-4.903 4.902H4.903A4.917 4.917 0 0 1 0 94.954v-9.806L104.59 39.39v55.564z"/>
        <path fill="#D6D9DB" d="M33.256 29.177l.654 3.432-5.23-8.172-7.353 11.44c-.082 1.062 4.657 1.879 10.54 1.879 5.883 0 10.623-.817 10.623-1.88l-6.456-9.56-2.778 2.86zm.654-4.495a2.023 2.023 0 0 0 2.043-2.042 2.023 2.023 0 0 0-2.043-2.043 2.023 2.023 0 0 0-2.043 2.043c0 1.144.899 2.042 2.043 2.042zm16.75-.817h32.685a1.64 1.64 0 0 0 1.634-1.634 1.64 1.64 0 0 0-1.634-1.634H50.661a1.64 1.64 0 0 0-1.634 1.634c0 .899.735 1.634 1.634 1.634zm32.685 3.269H50.661a1.64 1.64 0 0 0-1.634 1.634 1.64 1.64 0 0 0 1.634 1.634h32.684a1.64 1.64 0 0 0 1.634-1.634c0-.899-.735-1.634-1.634-1.634zm-8.171 6.537H50.66a1.64 1.64 0 0 0-1.634 1.634 1.64 1.64 0 0 0 1.634 1.634h24.513a1.64 1.64 0 0 0 1.634-1.634 1.64 1.64 0 0 0-1.634-1.634z"/>
        <path fill="#ED4F73" d="M65.042 6.706l5.23-6.537H81.71l-5.23 6.537h-11.44zm-42.49 0l5.23-6.537h11.44l-5.23 6.537h-11.44z"/>
    </g>
</svg>
