<svg xmlns="http://www.w3.org/2000/svg" width="31" height="36" viewBox="0 0 31 36">
    <defs>
        <filter id="a" width="127.2%" height="128.5%" x="-13.6%" y="-16%" filterUnits="objectBoundingBox">
            <feColorMatrix in="shadowBlurOuter1" result="shadowMatrixOuter1" values="0 0 0 0 0 0 0 0 0 0 0 0 0 0 0 0 0 0 0.5 0"/>
            <feMerge>
                <feMergeNode in="shadowMatrixOuter1"/>
                <feMergeNode in="SourceGraphic"/>
            </feMerge>
        </filter>
    </defs>
    <g fill="none" fill-rule="nonzero" filter="url(#a)" transform="translate(-533 -143)">
        <path fill="#DCE1EB" d="M549.353 158.297v2.827a.821.821 0 0 1-1.641 0v-2.827a.821.821 0 0 1 1.641 0z"/>
        <path fill="#CDD2E1" d="M549.353 158.297v2.827c0 .453-.367.82-.82.82v-4.468c.453 0 .82.368.82.82z"/>
        <path fill="#FF873C" d="M559.304 151.349l-5.736 6.049-1.03 1.087a2.037 2.037 0 0 1-1.473.633h-4.943c-.535 0-1.04-.207-1.422-.582l-1.132-1.112-5.962-5.86a2.035 2.035 0 0 1-.043-2.85l2.96-3.09a2.037 2.037 0 0 1 1.464-.625l12.833.001a2.015 2.015 0 0 1 1.413.574l3.012 2.924c.793.77.82 2.049.059 2.85z"/>
        <path fill="#FA732D" d="M559.304 151.349l-5.736 6.049-1.03 1.087a2.037 2.037 0 0 1-1.473.633h-2.533V145h6.288a2.015 2.015 0 0 1 1.413.574l3.012 2.924c.793.77.82 2.049.059 2.85z"/>
        <path fill="#FFC44D" d="M554.881 166.651c0 3.5-2.848 6.349-6.348 6.349a6.356 6.356 0 0 1-6.349-6.349c0-3.5 2.848-6.348 6.349-6.348 3.5 0 6.348 2.848 6.348 6.348z"/>
        <path fill="#FF9D3B" d="M554.881 166.651c0 3.5-2.848 6.349-6.348 6.349v-12.697c3.5 0 6.348 2.848 6.348 6.348z"/>
        <path fill="#FFE388" d="M549.03 164.262a.568.568 0 0 0-.316-.093.363.363 0 0 0-.194.047l-.882.534a.381.381 0 0 0-.193.354.47.47 0 0 0 .093.287.28.28 0 0 0 .4.073l.195-.12v3.399c0 .103.05.182.153.237a.687.687 0 0 0 .247.076.86.86 0 0 0 .12.008.763.763 0 0 0 .368-.084c.102-.055.153-.134.153-.237v-4.247c0-.094-.048-.171-.143-.234z"/>
        <path fill="#CF0404" d="M559.304 151.349l-5.736 6.049-1.03 1.087a2.037 2.037 0 0 1-1.473.633h-4.943c-.535 0-1.04-.207-1.422-.582l-1.132-1.112 12.282-12.143c.138.08.266.179.383.293l3.012 2.924c.793.77.82 2.049.059 2.85z"/>
        <path fill="#FF2121" d="M553.568 157.398l-1.03 1.087a2.037 2.037 0 0 1-1.473.633h-4.943c-.535 0-1.04-.207-1.422-.581l-7.094-6.972a2.035 2.035 0 0 1-.043-2.85l2.96-3.09a1.97 1.97 0 0 1 .405-.325l12.64 12.098z"/>
        <path fill="#FFC44D" d="M549.174 164.496v4.247c0 .103-.051.182-.153.238a.763.763 0 0 1-.368.083.859.859 0 0 1-.12-.008v-4.847a.363.363 0 0 1 .18-.04c.116 0 .222.03.318.093.095.063.143.14.143.234z"/>
    </g>
</svg>
