<svg xmlns="http://www.w3.org/2000/svg" xmlns:xlink="http://www.w3.org/1999/xlink" width="716" height="334" viewBox="0 0 716 334">
    <defs>
        <rect id="prefix__a" width="646" height="252" x="0" y="30" rx="12"/>
        <rect id="prefix__c" width="646" height="252" x="0" y="30" rx="12"/>
        <rect id="prefix__f" width="584" height="40" x="0" y="24" rx="6"/>
        <rect id="prefix__h" width="155" height="40" x="0" y="0" rx="6"/>
        <rect id="prefix__j" width="155" height="40" x="0" y="0" rx="6"/>
        <filter id="prefix__b" width="116.7%" height="142.9%" x="-8.4%" y="-20.2%" filterUnits="objectBoundingBox">
            <feOffset dy="3" in="SourceAlpha" result="shadowOffsetOuter1"/>
            <feGaussianBlur in="shadowOffsetOuter1" result="shadowBlurOuter1" stdDeviation="17.5"/>
            <feColorMatrix in="shadowBlurOuter1" values="0 0 0 0 0 0 0 0 0 0.231372549 0 0 0 0 0.635294118 0 0 0 0.2 0"/>
        </filter>
        <filter id="prefix__e" width="101.7%" height="125%" x="-.9%" y="-10%" filterUnits="objectBoundingBox">
            <feOffset dy="1" in="SourceAlpha" result="shadowOffsetOuter1"/>
            <feGaussianBlur in="shadowOffsetOuter1" result="shadowBlurOuter1" stdDeviation="1.5"/>
            <feComposite in="shadowBlurOuter1" in2="SourceAlpha" operator="out" result="shadowBlurOuter1"/>
            <feColorMatrix in="shadowBlurOuter1" values="0 0 0 0 0.37254902 0 0 0 0 0.466666667 0 0 0 0 0.611764706 0 0 0 0.15 0"/>
        </filter>
        <filter id="prefix__g" width="142.6%" height="265%" x="-21.3%" y="-67.5%" filterUnits="objectBoundingBox">
            <feOffset dy="6" in="SourceAlpha" result="shadowOffsetOuter1"/>
            <feGaussianBlur in="shadowOffsetOuter1" result="shadowBlurOuter1" stdDeviation="10"/>
            <feColorMatrix in="shadowBlurOuter1" values="0 0 0 0 0.0633431762 0 0 0 0 0.19604996 0 0 0 0 0.427281476 0 0 0 0.199382649 0"/>
        </filter>
        <filter id="prefix__i" width="142.6%" height="265%" x="-21.3%" y="-67.5%" filterUnits="objectBoundingBox">
            <feOffset dy="6" in="SourceAlpha" result="shadowOffsetOuter1"/>
            <feGaussianBlur in="shadowOffsetOuter1" result="shadowBlurOuter1" stdDeviation="10"/>
            <feColorMatrix in="shadowBlurOuter1" values="0 0 0 0 0.0633431762 0 0 0 0 0.19604996 0 0 0 0 0.427281476 0 0 0 0.199382649 0"/>
        </filter>
        <linearGradient id="prefix__k" x1="0%" x2="71.608%" y1="50%" y2="50%">
            <stop offset="0%" stop-color="#FFF" stop-opacity="0"/>
            <stop offset="30.952%" stop-color="#FFF" stop-opacity="0"/>
            <stop offset="100%" stop-color="#FFF"/>
        </linearGradient>
    </defs>
    <g fill="none" fill-rule="evenodd" transform="translate(35 2)">
        <use fill="#000" filter="url(#prefix__b)" xlink:href="#prefix__a"/>
        <use fill="#FFF" xlink:href="#prefix__a"/>
        <mask id="prefix__d" fill="#fff">
            <use xlink:href="#prefix__c"/>
        </mask>
        <use fill="#FFF" xlink:href="#prefix__c"/>
        <text fill="#000" font-family="Nunito Sans, sans-serif" font-size="14" mask="url(#prefix__d)">
            <tspan x="31" y="123">You can start creating roadmap from scratch or you can Import data from CSV.</tspan>
        </text>
        <g mask="url(#prefix__d)">
            <g transform="translate(31 158)">
                <use fill="#000" filter="url(#prefix__e)" xlink:href="#prefix__f"/>
                <rect width="583" height="39" x=".5" y="24.5" fill="#FFF" stroke="#94A9C9" stroke-linejoin="square" rx="6"/>
                <text font-family="NunitoSans-Italic, Nunito Sans" font-size="12" font-style="italic">
                    <tspan x="15" y="12" fill="#5F779C">New Roadmap Title</tspan>
                </text>
                <text font-family="NunitoSans-Bold, Nunito Sans" font-size="12" font-weight="bold">
                    <tspan x="15" y="48" fill="#C5D2E4">My First Roadmap</tspan>
                </text>
            </g>
        </g>
        <text fill="#286ADD" font-family="Nunito Sans, sans-serif" font-size="14" font-weight="700" mask="url(#prefix__d)">
            <tspan x="31" y="74">CREATE A NEW ROADMAP</tspan>
        </text>
        <path fill="#286ADD" fill-rule="nonzero" d="M614.594 65.364L610.958 69l3.636 3.636c.541.541.541 1.418 0 1.959-.27.27-.624.405-.978.405-.355 0-.71-.135-.98-.405L609 70.958l-3.636 3.637c-.27.27-.625.405-.98.405-.354 0-.708-.135-.978-.405-.541-.541-.541-1.418 0-1.959L607.042 69l-3.636-3.636c-.541-.541-.541-1.418 0-1.959.54-.54 1.416-.54 1.957 0L609 67.042l3.636-3.637c.541-.54 1.418-.54 1.958 0 .541.541.541 1.418 0 1.959z" mask="url(#prefix__d)"/>
        <g transform="translate(338 262)">
            <use fill="#000" filter="url(#prefix__g)" xlink:href="#prefix__h"/>
            <use fill="#286ADD" xlink:href="#prefix__h"/>
            <text fill="#FFF" font-family="Nunito Sans, sans-serif" font-size="12" font-weight="600">
                <tspan x="20.896" y="24">Create from Scratch</tspan>
            </text>
        </g>
        <g transform="translate(153 262)">
            <use fill="#000" filter="url(#prefix__i)" xlink:href="#prefix__j"/>
            <use fill="#FFF" xlink:href="#prefix__j"/>
            <text fill="#286ADD" font-family="Nunito Sans, sans-serif" font-size="12" font-weight="600">
                <tspan x="43.06" y="24">Import Data</tspan>
            </text>
        </g>
        <path fill="url(#prefix__k)" d="M331 0H676V332H331z"/>
    </g>
</svg>
