<svg xmlns="http://www.w3.org/2000/svg" width="254" height="244" viewBox="0 0 254 244">
    <g fill="none" fill-rule="evenodd">
        <circle cx="20" cy="20" r="20" fill="#74A0EB" fill-rule="nonzero"/>
        <rect width="52" height="12" x="49" y="6" fill="#74A0EB" fill-rule="nonzero" rx="3"/>
        <rect width="21" height="12" x="49" y="22" fill="#437FE6" fill-rule="nonzero" rx="3"/>
        <g transform="translate(228 7)">
            <circle cx="13" cy="13" r="13" fill="#FFF"/>
            <path fill="#74A0EB" fill-rule="nonzero" d="M12.998 0C5.819 0 0 5.821 0 13s5.82 13 12.998 13C20.18 26 26 20.178 26 13c0-7.179-5.82-13-13.002-13zM17.2 10.738v7.322c0 .807-.625 1.464-1.395 1.464h-5.578c-.77 0-1.395-.657-1.395-1.464v-7.322H17.2zm-2.79-4.23v.732h3.487v1.465H8.135V7.24h3.487v-.732h2.789z"/>
        </g>
        <g transform="translate(120)">
            <rect width="88" height="40" fill="#FFF" rx="6"/>
            <text fill="#000" font-family="Nunito Sans, sans-serif" font-size="12" font-weight="bold">
                <tspan x="15" y="24">View Only</tspan>
            </text>
        </g>
        <g opacity=".3" transform="translate(0 204)">
            <circle cx="20" cy="20" r="20" fill="#74A0EB" fill-rule="nonzero"/>
            <rect width="52" height="12" x="49" y="6" fill="#74A0EB" fill-rule="nonzero" rx="3"/>
            <rect width="21" height="12" x="49" y="22" fill="#437FE6" fill-rule="nonzero" rx="3"/>
            <g transform="translate(228 7)">
                <circle cx="13" cy="13" r="13" fill="#FFF"/>
                <path fill="#74A0EB" fill-rule="nonzero" d="M12.998 0C5.819 0 0 5.821 0 13s5.82 13 12.998 13C20.18 26 26 20.178 26 13c0-7.179-5.82-13-13.002-13zM17.2 10.738v7.322c0 .807-.625 1.464-1.395 1.464h-5.578c-.77 0-1.395-.657-1.395-1.464v-7.322H17.2zm-2.79-4.23v.732h3.487v1.465H8.135V7.24h3.487v-.732h2.789z"/>
            </g>
            <g transform="translate(120)">
                <rect width="88" height="40" fill="#FFF" rx="6"/>
                <text fill="#000" font-family="Nunito Sans, sans-serif" font-size="12" font-weight="bold">
                    <tspan x="15" y="24">View Only</tspan>
                </text>
            </g>
        </g>
        <g transform="translate(0 68)">
            <circle cx="20" cy="20" r="20" fill="#74A0EB" fill-rule="nonzero"/>
            <rect width="40" height="12" x="49" y="6" fill="#74A0EB" fill-rule="nonzero" rx="3"/>
            <rect width="30" height="12" x="49" y="22" fill="#437FE6" fill-rule="nonzero" rx="3"/>
            <g transform="translate(228 7)">
                <circle cx="13" cy="13" r="13" fill="#FFF"/>
                <path fill="#74A0EB" fill-rule="nonzero" d="M12.998 0C5.819 0 0 5.821 0 13s5.82 13 12.998 13C20.18 26 26 20.178 26 13c0-7.179-5.82-13-13.002-13zM17.2 10.738v7.322c0 .807-.625 1.464-1.395 1.464h-5.578c-.77 0-1.395-.657-1.395-1.464v-7.322H17.2zm-2.79-4.23v.732h3.487v1.465H8.135V7.24h3.487v-.732h2.789z"/>
            </g>
            <g transform="translate(120)">
                <rect width="88" height="40" fill="#FFF" rx="6"/>
                <text fill="#000" font-family="Nunito Sans, sans-serif" font-size="12" font-weight="bold">
                    <tspan x="15" y="24">Edit</tspan>
                </text>
            </g>
        </g>
        <g transform="translate(0 136)">
            <circle cx="20" cy="20" r="20" fill="#74A0EB" fill-rule="nonzero"/>
            <rect width="46" height="12" x="49" y="6" fill="#74A0EB" fill-rule="nonzero" rx="3"/>
            <rect width="29" height="12" x="49" y="22" fill="#437FE6" fill-rule="nonzero" rx="3"/>
            <g transform="translate(228 7)">
                <circle cx="13" cy="13" r="13" fill="#FFF"/>
                <path fill="#74A0EB" fill-rule="nonzero" d="M12.998 0C5.819 0 0 5.821 0 13s5.82 13 12.998 13C20.18 26 26 20.178 26 13c0-7.179-5.82-13-13.002-13zM17.2 10.738v7.322c0 .807-.625 1.464-1.395 1.464h-5.578c-.77 0-1.395-.657-1.395-1.464v-7.322H17.2zm-2.79-4.23v.732h3.487v1.465H8.135V7.24h3.487v-.732h2.789z"/>
            </g>
            <g transform="translate(120)">
                <rect width="88" height="40" fill="#FFF" rx="6"/>
                <text fill="#000" font-family="Nunito Sans, sans-serif" font-size="12" font-weight="bold">
                    <tspan x="15" y="24">Edit</tspan>
                </text>
            </g>
        </g>
    </g>
</svg>
