<svg xmlns="http://www.w3.org/2000/svg" width="254" height="243" viewBox="0 0 254 243">
    <defs>
        <linearGradient id="prefix__a" x1="50%" x2="50%" y1="100%" y2="77.383%">
            <stop offset="0%" stop-color="#286ADD"/>
            <stop offset="100%" stop-color="#74A0EB"/>
        </linearGradient>
        <linearGradient id="prefix__b" x1="50%" x2="50%" y1="100%" y2="77.383%">
            <stop offset="0%" stop-color="#286ADD"/>
            <stop offset="100%" stop-color="#74A0EB"/>
        </linearGradient>
    </defs>
    <g fill="none" fill-rule="evenodd">
        <circle cx="20" cy="20" r="20" fill="#74A0EB" fill-rule="nonzero"/>
        <g transform="translate(17 40)">
            <path fill="url(#prefix__a)" d="M2 0H4V110H2z"/>
            <circle cx="3" cy="34" r="4" fill="#74A0EB" stroke="#286ADD" stroke-width="2"/>
            <circle cx="3" cy="83" r="4" fill="#74A0EB" stroke="#286ADD" stroke-width="2"/>
        </g>
        <text fill="#FFF" font-family="Nunito Sans, sans-serif" font-size="12" font-weight="700">
            <tspan x="184.076" y="24">23 mins ago</tspan>
        </text>
        <rect width="52" height="12" x="49" y="6" fill="#74A0EB" fill-rule="nonzero" rx="3"/>
        <rect width="21" height="12" x="49" y="22" fill="#437FE6" fill-rule="nonzero" rx="3"/>
        <rect width="183" height="6" x="49" y="71" fill="#FFF" fill-rule="nonzero" rx="3"/>
        <rect width="151" height="6" x="49" y="116" fill="#FFF" fill-rule="nonzero" rx="3"/>
        <rect width="78" height="6" x="49" y="124" fill="#FFF" fill-rule="nonzero" rx="3"/>
        <g opacity=".3" transform="translate(0 150)">
            <circle cx="20" cy="20" r="20" fill="#74A0EB" fill-rule="nonzero"/>
            <g transform="translate(17 40)">
                <path fill="url(#prefix__b)" d="M2 0H4V53H2z"/>
                <circle cx="3" cy="34" r="4" fill="#74A0EB" stroke="#286ADD" stroke-width="2"/>
            </g>
            <text fill="#FFF" font-family="Nunito Sans, sans-serif" font-size="12" font-weight="700">
                <tspan x="211.304" y="24">1 h ago</tspan>
            </text>
            <rect width="52" height="12" x="49" y="6" fill="#74A0EB" fill-rule="nonzero" rx="3"/>
            <rect width="21" height="12" x="49" y="22" fill="#437FE6" fill-rule="nonzero" rx="3"/>
            <rect width="193" height="6" x="49" y="71" fill="#FFF" fill-rule="nonzero" rx="3"/>
            <rect width="130" height="6" x="49" y="79" fill="#FFF" fill-rule="nonzero" rx="3"/>
        </g>
    </g>
</svg>
