<svg xmlns="http://www.w3.org/2000/svg" width="14" height="16" viewBox="0 0 14 16">
    <g fill="none" fill-rule="evenodd">
        <g fill="#FFF" fill-rule="nonzero">
            <g>
                <path d="M1214.545 76h-11.09c-.576 0-1.097.388-1.33.99-.232.6-.133 1.302.254 1.79l4.806 6.04v5.699c0 .227.114.434.293.533.07.04.148.06.226.06.118 0 .232-.047.324-.131l.972-.89 1.62-1.48c.123-.113.195-.283.195-.463v-3.327l4.806-6.042c.387-.487.486-1.188.253-1.79-.232-.6-.753-.988-1.329-.989z" transform="translate(-1202 -76)"/>
            </g>
        </g>
    </g>
</svg>
