<svg xmlns="http://www.w3.org/2000/svg" width="14" height="16" viewBox="0 0 14 16">
    <g fill="none" fill-rule="evenodd">
        <g fill="#286ADD" fill-rule="nonzero">
            <g>
                <g>
                    <path d="M33 21c1.105 0 2 .895 2 2v12c0 1.105-.895 2-2 2H23c-1.105 0-2-.895-2-2V23c0-1.105.895-2 2-2h10zm-8.2 3c-.442 0-.8.342-.8.765v8.353c0 .422.358.764.8.764.442 0 .8-.342.8-.764v-8.353c0-.423-.358-.765-.8-.765zm3.2 0c-.442 0-.8.342-.8.765v8.353c0 .422.358.764.8.764.442 0 .8-.342.8-.764v-8.353c0-.423-.358-.765-.8-.765zm3.2 0c-.442 0-.8.342-.8.765v8.353c0 .422.358.764.8.764.442 0 .8-.342.8-.764v-8.353c0-.423-.358-.765-.8-.765z" transform="translate(-119 -366) translate(98 109) translate(0 236)"/>
                </g>
            </g>
        </g>
    </g>
</svg>
