<svg xmlns="http://www.w3.org/2000/svg" width="16" height="16" viewBox="0 0 16 16">
    <g fill="none" fill-rule="evenodd">
        <g fill="#FFF" fill-rule="nonzero">
            <g>
                <path d="M1208.98 111c-4.4 0-7.98 3.58-7.98 7.98 0 4.401 3.58 7.982 7.98 7.982 4.401 0 7.982-3.58 7.982-7.981 0-4.4-3.58-7.981-7.981-7.981zm2.448 7.247c-.102.21-.325.346-.572.346h-1.041v3.11c0 .43-.373.779-.833.779-.461 0-.834-.349-.834-.778v-3.111h-1.041c-.247 0-.47-.136-.572-.346-.1-.211-.058-.457.107-.628l1.875-1.944c.119-.123.287-.193.465-.193.177 0 .345.07.465.193l1.874 1.944c.165.171.207.418.107.628z" transform="translate(-1201 -111) rotate(-180 1208.98 118.98)"/>
            </g>
        </g>
    </g>
</svg>
