<svg xmlns="http://www.w3.org/2000/svg" width="22" height="20" viewBox="0 0 22 20">
    <path fill="#ED4F73" fill-rule="nonzero" d="M11.004 0c1.406 0 2.661.714 3.366 1.92l.022.036 7.082 12.197a3.821 3.821 0 0 1-.01 3.886A3.898 3.898 0 0 1 18.107 20l-.042.001H3.918a3.874 3.874 0 0 1-3.379-1.93 3.85 3.85 0 0 1-.034-3.87l.02-.038 7.092-12.21A3.866 3.866 0 0 1 11.004 0zM11 14.054a1.14 1.14 0 0 0-1.13 1.125A1.14 1.14 0 0 0 11 16.303c.592 0 1.13-.513 1.103-1.097A1.1 1.1 0 0 0 11 14.054zm-.28-7.893c-.539.153-.874.64-.874 1.228.028.356.05.715.077 1.07l.231 4.035a.827.827 0 0 0 .846.791.843.843 0 0 0 .845-.818v-.118c.001-.235.004-.458.028-.7.05-.869.104-1.737.153-2.605.027-.562.077-1.124.104-1.686 0-.203-.027-.383-.104-.562a1.135 1.135 0 0 0-1.307-.635z"/>
</svg>
