<svg xmlns="http://www.w3.org/2000/svg" viewBox="0 0 2.64 7.24">
  <path d="M1.68,2.41H.33A.33.33,0,0,0,0,2.73H0v.69a.33.33,0,0,0,.33.33H.6V5.89H.33A.33.33,0,0,0,0,6.21H0v.69a.33.33,0,0,0,.33.33h2a.33.33,0,0,0,.33-.33h0V6.22a.34.34,0,0,0-.33-.35H2V2.74a.33.33,0,0,0-.33-.33ZM1.31,0H1.14L1,.06H1L.83.14.7.24.6.36.53.5A.72.72,0,0,0,.47.65a.84.84,0,0,0,0,.17A.78.78,0,0,0,.47,1a1.18,1.18,0,0,0,.05.2l.08.14.09.11.13.12A.43.43,0,0,0,1,1.64l.17.05h.33a.46.46,0,0,0,.14-.05h0a.82.82,0,0,0,.15-.09l.11-.1h0L2,1.32a.4.4,0,0,0,.06-.13s0,0,0,0A.81.81,0,0,0,2.12,1a.73.73,0,0,0,0-.17.72.72,0,0,0,0-.17A1.13,1.13,0,0,0,2.07.5.73.73,0,0,0,1.92.27l0,0L1.77.14,1.63.06,1.47,0H1.31Z" fill="#fff"/>
</svg>
