<svg xmlns="http://www.w3.org/2000/svg" width="16" height="16" viewBox="0 0 16 16">
    <path fill="#94A9C9" fill-rule="nonzero" d="M14.386 1.701h-1.702V.772A.778.778 0 0 0 11.9 0h-.124a.778.778 0 0 0-.784.772v.929H4.988V.772A.778.778 0 0 0 4.204 0H4.08a.778.778 0 0 0-.784.772v.929H1.614C.724 1.701 0 2.414 0 3.29V14.41C0 15.287.724 16 1.614 16h12.772c.89 0 1.614-.713 1.614-1.589V3.29c0-.876-.724-1.589-1.614-1.589zm-.21 12.503H1.824V5.547h12.35v8.657zM3 7h2v2H3V7zm0 4h2v2H3v-2zm4-4h2v2H7V7zm4 0h2v2h-2V7z"/>
</svg>
