<svg xmlns="http://www.w3.org/2000/svg" width="8" height="14" viewBox="0 0 8 14">
    <path fill="#5F779C" fill-rule="nonzero" d="M7.725 9.37a1.023 1.023 0 0 1-.031 1.428l-3 2.922a.98.98 0 0 1-1.368.002L.308 10.801A1.018 1.018 0 0 1 0 10.068c0-.25.09-.5.273-.695a.98.98 0 0 1 1.401-.036l2.333 2.258L6.323 9.34a.979.979 0 0 1 1.402.032zM3.326.279A.98.98 0 0 1 4.695.28l2.999 2.922c.395.385.41 1.024.031 1.427a.979.979 0 0 1-1.402.032L4.007 2.405 1.674 4.663a.98.98 0 0 1-1.401-.036A1.017 1.017 0 0 1 0 3.932c0-.268.104-.534.308-.733z"/>
</svg>
