<svg xmlns="http://www.w3.org/2000/svg" xmlns:xlink="http://www.w3.org/1999/xlink" width="40" height="40" viewBox="0 0 40 40">
    <defs>
        <filter id="prefix__a" width="240.9%" height="240.9%" x="-70.5%" y="-52.3%" filterUnits="objectBoundingBox">
            <feOffset dy="4" in="SourceAlpha" result="shadowOffsetOuter1"/>
            <feGaussianBlur in="shadowOffsetOuter1" result="shadowBlurOuter1" stdDeviation="4.5"/>
            <feColorMatrix in="shadowBlurOuter1" values="0 0 0 0 0.156862745 0 0 0 0 0.415686275 0 0 0 0 0.866666667 0 0 0 0.4 0"/>
        </filter>
        <rect id="prefix__b" width="22" height="22" x="0" y="0" rx="2.933"/>
    </defs>
    <g fill="none" fill-rule="evenodd" opacity=".5" transform="translate(9 5)">
        <use fill="#000" filter="url(#prefix__a)" xlink:href="#prefix__b"/>
        <use fill="#286ADD" xlink:href="#prefix__b"/>
        <path fill="#FFF" fill-rule="nonzero" d="M15.508 9.947V6.5l-.95.949C13.66 6.549 12.412 6 11.013 6c-2.748 0-4.996 2.248-4.996 4.996s2.248 4.996 4.996 4.996c1.399 0 2.648-.55 3.547-1.449l-1.399-1.399c-.55.55-1.299.9-2.098.9-1.649 0-2.998-1.35-2.998-2.998 0-1.649 1.349-2.998 2.998-2.998.849 0 1.598.35 2.098.9l-1.05 1.049h3.398v-.05z"/>
    </g>
</svg>


