<svg xmlns="http://www.w3.org/2000/svg" width="16" height="16" viewBox="0 0 16 16">
    <g fill="none" fill-rule="evenodd">
        <g fill="#FFF" fill-rule="nonzero">
            <g>
                <path d="M1215.527 26.025h-.34c-.11-.345-.25-.68-.416-1.003l.24-.24c.584-.583.568-1.517 0-2.084l-.709-.71c-.566-.567-1.5-.583-2.083 0l-.241.241c-.322-.167-.658-.306-1.003-.416v-.34c0-.812-.66-1.473-1.473-1.473h-1.004c-.812 0-1.473.66-1.473 1.473v.34c-.345.11-.68.25-1.003.416l-.24-.24c-.582-.583-1.516-.57-2.084 0l-.71.709c-.567.567-.583 1.5 0 2.083l.241.241c-.167.322-.306.658-.416 1.003h-.34c-.812 0-1.473.66-1.473 1.473v1.004c0 .812.66 1.473 1.473 1.473h.34c.11.345.25.68.416 1.003l-.24.24c-.584.583-.568 1.517 0 2.084l.709.71c.566.567 1.5.583 2.083 0l.241-.241c.322.167.658.306 1.003.416v.34c0 .812.66 1.473 1.473 1.473h1.004c.812 0 1.473-.66 1.473-1.473v-.34c.345-.11.68-.25 1.003-.416l.24.24c.582.583 1.516.57 2.084 0l.71-.709c.567-.567.583-1.5 0-2.083l-.241-.241c.167-.322.306-.658.416-1.003h.34c.812 0 1.473-.66 1.473-1.473v-1.004c0-.812-.66-1.473-1.473-1.473zM1209 31.481c-1.92 0-3.481-1.561-3.481-3.481s1.561-3.481 3.481-3.481 3.481 1.561 3.481 3.481-1.561 3.481-3.481 3.481z" transform="translate(-1201 -20)"/>
            </g>
        </g>
    </g>
</svg>
