<?xml version="1.0" encoding="UTF-8"?>
<svg width="248px" height="110px" viewBox="0 0 248 110" version="1.1" xmlns="http://www.w3.org/2000/svg" xmlns:xlink="http://www.w3.org/1999/xlink">
    <title>45F32DD6-2A22-4573-8784-0F503E655A29</title>
    <defs>
        <path d="M0,0 L208,0 L208,60 C208,65.5228475 203.522847,70 198,70 L10,70 C4.4771525,70 6.76353751e-16,65.5228475 0,60 L0,0 L0,0 Z" id="path-1"></path>
        <filter x="-16.8%" y="-35.7%" width="133.7%" height="200.0%" filterUnits="objectBoundingBox" id="filter-2">
            <feOffset dx="0" dy="10" in="SourceAlpha" result="shadowOffsetOuter1"></feOffset>
            <feGaussianBlur stdDeviation="10" in="shadowOffsetOuter1" result="shadowBlurOuter1"></feGaussianBlur>
            <feColorMatrix values="0 0 0 0 0.0683118673   0 0 0 0 0.229589261   0 0 0 0 0.508944746  0 0 0 0.200885052 0" type="matrix" in="shadowBlurOuter1"></feColorMatrix>
        </filter>
    </defs>
    <g id="signup" stroke="none" stroke-width="1" fill="none" fill-rule="evenodd">
        <g id="signup1" transform="translate(-596.000000, 10.000000)">
            <g id="logo" transform="translate(616.000000, 0.000000)">
                <g id="logo-bg-area">
                    <use fill="black" fill-opacity="1" filter="url(#filter-2)" xlink:href="#path-1"></use>
                    <use fill="#1C5CCC" fill-rule="evenodd" xlink:href="#path-1"></use>
                </g>
                <g transform="translate(50.000000, 22.000000)" fill-rule="nonzero">
                    <path d="M9.99853463,17.6666667 L9.99853463,14.9091647 L4.88015763,14.9091647 L7.56211163,12.1705497 C8.30500029,11.389887 8.83068846,10.6816245 9.13917613,10.0457622 C9.44766379,9.40989983 9.60190763,8.707933 9.60190763,7.93986167 C9.60190763,7.18438167 9.40674196,6.52333667 9.01641063,5.95672667 C8.62607929,5.39011667 8.06891279,4.95256783 7.34491113,4.64408017 C6.62090946,4.3355925 5.78043796,4.18134867 4.82349663,4.18134867 C3.94210329,4.18134867 3.07644913,4.31040983 2.22653413,4.56853217 C1.37661913,4.8266545 0.687243627,5.16976833 0.158407627,5.59787367 L0.158407627,5.59787367 L1.23496663,8.05318367 C1.82675929,7.67544367 2.41540413,7.38269517 3.00090113,7.17493817 C3.58639813,6.96718117 4.13097329,6.86330267 4.63462663,6.86330267 C5.67970729,6.86330267 6.20224763,7.30399933 6.20224763,8.18539267 C6.20224763,8.91569 5.78673363,9.71523967 4.95570563,10.5840417 L4.95570563,10.5840417 L0.611695627,15.0980347 L0.611695627,17.6666667 L9.99853463,17.6666667 Z" id="Path" fill="#9BBDF7"></path>
                    <polygon id="Path" fill="#9BBDF7" points="24.5318673 17.6666667 24.5318673 14.8525014 18.8657627 14.8525014 18.8657627 4.35132097 15.3905519 4.35132097 15.3905519 17.6666667"></polygon>
                    <path d="M37.6165216,0.351320967 L43.8492366,13.6666667 L40.4117998,13.6666667 L39.2219179,10.9091625 L33.3291691,10.9091625 L32.1392872,13.6666667 L28.6451894,13.6666667 L34.8590174,0.351320967 L37.6165216,0.351320967 Z M36.2755435,4.03428893 L34.443503,8.30275436 L38.107584,8.30275436 L36.2755435,4.03428893 Z" id="Combined-Shape" fill="#FFFFFF"></path>
                    <path d="M52.6985902,17.8366498 C54.6124744,17.8366498 56.076218,17.3424396 57.0898212,16.3540191 C58.1034243,15.3655987 58.6102259,13.9333333 58.6102259,12.0572232 L58.6102259,12.0572232 L58.6102259,4.35132097 L55.1916762,4.35132097 L55.1916762,12.1894323 C55.1916762,13.1463744 54.9776233,13.882968 54.5495176,14.399213 C54.121412,14.9154581 53.5044361,15.1735807 52.6985902,15.1735807 C51.8927442,15.1735807 51.2757683,14.9154581 50.8476627,14.399213 C50.419557,13.882968 50.2055042,13.1463744 50.2055042,12.1894323 L50.2055042,12.1894323 L50.2055042,4.35132097 L46.8058414,4.35132097 L46.8058414,12.0572232 C46.8058414,13.9459247 47.3063473,15.3813378 48.3073591,16.3634626 C49.3083709,17.3455874 50.7721146,17.8366498 52.6985902,17.8366498 Z" id="Path" fill="#9BBDF7"></path>
                    <polygon id="Path" fill="#9BBDF7" points="66.5152287 17.6666667 66.5152287 10.0551996 72.5968476 17.6666667 75.1654817 17.6666667 75.1654817 4.35132097 71.9169151 4.35132097 71.9169151 11.9627881 65.8164092 4.35132097 63.2855491 4.35132097 63.2855491 17.6666667"></polygon>
                    <path d="M86.3757121,17.8366498 C87.2445148,17.8366498 88.084987,17.7044407 88.8971287,17.4400225 C89.7092703,17.1756043 90.3734637,16.8230467 90.8897088,16.3823496 L90.8897088,16.3823496 L89.8131489,13.9270377 C88.717702,14.6951096 87.5970724,15.0791456 86.4512602,15.0791456 C85.3684047,15.0791456 84.5405238,14.7360315 83.9676177,14.0498033 C83.3947116,13.363575 83.1082585,12.3468241 83.1082585,10.9995503 C83.1082585,9.65227656 83.3947116,8.63867341 83.9676177,7.95874087 C84.5405238,7.27880832 85.3684047,6.93884205 86.4512602,6.93884205 C87.5970724,6.93884205 88.717702,7.32287802 89.8131489,8.09094997 L89.8131489,8.09094997 L90.8897088,5.635638 C90.3734637,5.19494098 89.7092703,4.84238336 88.8971287,4.57796515 C88.084987,4.31354694 87.2445148,4.18133783 86.3757121,4.18133783 C84.9906644,4.18133783 83.7850432,4.46464306 82.7588487,5.03125351 C81.7326542,5.59786397 80.9456953,6.39426644 80.3979718,7.42046093 C79.8502484,8.44665542 79.5763867,9.63968522 79.5763867,10.9995503 C79.5763867,12.3594154 79.8502484,13.555593 80.3979718,14.5880832 C80.9456953,15.6205734 81.7326542,16.4201237 82.7588487,16.9867341 C83.7850432,17.5533446 84.9906644,17.8366498 86.3757121,17.8366498 Z" id="Path" fill="#9BBDF7"></path>
                    <polygon id="Path" fill="#9BBDF7" points="98.7880786 17.6666667 98.7880786 12.2838673 104.227539 12.2838673 104.227539 17.6666667 107.627202 17.6666667 107.627202 4.35132097 104.227539 4.35132097 104.227539 9.52636313 98.7880786 9.52636313 98.7880786 4.35132097 95.3884159 4.35132097 95.3884159 17.6666667"></polygon>
                    <g id="Group" transform="translate(31.833333, 18.666667)" fill="#FFFFFF">
                        <path d="M1.16666667,0 C0.516025641,0 0,0.471500228 0,1.04331965 L0,7.95668035 C0,8.53853169 0.52724359,9 1.16666667,9 C1.80608974,9 2.33333333,8.52849977 2.33333333,7.95668035 L2.33333333,1.04331965 C2.33333333,0.461468308 1.80608974,0 1.16666667,0 Z" id="Path"></path>
                        <path d="M3.68108974,1.97131474 C3.68108974,1.97131474 3.68108974,1.97131474 3.66987179,1.9811421 C3.53525641,2.09907039 3.43429487,2.2563081 3.37820513,2.43320053 C3.35576923,2.52164675 3.33333333,2.61009296 3.33333333,2.70836653 L3.33333333,12.3112882 C3.33333333,12.389907 3.34455128,12.4685259 3.36698718,12.5471448 C3.49038462,12.9992032 3.95032051,13.3333333 4.5,13.3333333 C5.04967949,13.3333333 5.50961538,12.9992032 5.63301282,12.5471448 C5.65544872,12.4685259 5.66666667,12.389907 5.66666667,12.3112882 L5.66666667,2.68871182 C5.66666667,2.59043825 5.65544872,2.50199203 5.62179487,2.41354582 C5.49839744,1.9811421 5.04967949,1.66666667 4.51121795,1.66666667 C4.18589744,1.66666667 3.89423077,1.78459495 3.68108974,1.97131474 Z" id="Path"></path>
                        <path d="M7.83324546,0 C7.18265344,0 6.66666667,0.471500228 6.66666667,1.04331965 L6.66666667,7.95668035 C6.66666667,8.53853169 7.19387055,9 7.83324546,9 C8.47262038,9 8.99982426,8.52849977 8.99982426,7.95668035 L8.99982426,1.04331965 C9.01104136,0.461468308 8.48383749,0 7.83324546,0 Z" id="Path"></path>
                    </g>
                </g>
            </g>
        </g>
    </g>
</svg>