<svg xmlns="http://www.w3.org/2000/svg" width="81" height="81" viewBox="0 0 81 81">
    <g fill="none">
        <path fill="#EEA849" d="M80.07 37.8c-1.97-2.515-5.18-5.764-8.55-8.188-1.058-.76-1.597-2.062-1.387-3.347.67-4.1.642-8.67.255-11.84-.243-1.995-1.818-3.57-3.812-3.813-3.172-.386-7.742-.415-11.84.255-1.286.21-2.588-.329-3.348-1.387C48.965 6.11 45.715 2.9 43.2.93c-1.585-1.24-3.813-1.24-5.398 0-2.516 1.97-5.765 5.18-8.189 8.55-.76 1.058-2.061 1.597-3.347 1.387-4.099-.67-8.67-.641-11.84-.255-1.995.243-3.57 1.818-3.813 3.812-.386 3.172-.415 7.742.255 11.84.21 1.286-.329 2.588-1.387 3.348-3.37 2.423-6.58 5.673-8.55 8.189-1.24 1.585-1.24 3.813 0 5.398 1.97 2.516 5.18 5.766 8.55 8.189 1.058.76 1.598 2.062 1.387 3.347-.67 4.1-.641 8.67-.255 11.84.243 1.995 1.818 3.57 3.813 3.813 3.17.386 7.741.415 11.84-.255 1.286-.21 2.587.329 3.347 1.387 2.424 3.37 5.673 6.58 8.19 8.55 1.584 1.24 3.813 1.24 5.397 0 2.516-1.97 5.766-5.18 8.19-8.55.76-1.058 2.06-1.597 3.347-1.387 4.098.67 8.668.641 11.84.255 1.994-.243 3.57-1.818 3.812-3.812.387-3.172.415-7.742-.255-11.84-.21-1.286.329-2.588 1.387-3.348 3.37-2.423 6.58-5.673 8.55-8.189 1.24-1.585 1.24-3.813 0-5.398z"/>
        <path fill="#E9901B" d="M70.65 60.681C17.278 69.174 17.916 28.31 23.87 10.557c-3.403-.336-6.88-.257-9.445.055-1.994.243-3.569 1.818-3.812 3.812-.386 3.172-.415 7.742.255 11.84.21 1.286-.329 2.588-1.387 3.348-3.37 2.423-6.58 5.673-8.55 8.189-1.24 1.585-1.24 3.813 0 5.398 1.97 2.516 5.18 5.766 8.55 8.189 1.058.76 1.598 2.062 1.387 3.347-.67 4.1-.641 8.67-.255 11.84.243 1.995 1.818 3.57 3.813 3.813 3.17.387 7.741.415 11.84-.255 1.286-.21 2.587.329 3.347 1.387 2.424 3.37 5.673 6.58 8.189 8.55 1.585 1.24 3.813 1.24 5.398 0 2.516-1.97 5.766-5.18 8.19-8.55.76-1.058 2.06-1.597 3.346-1.387 4.1.67 8.67.642 11.84.255 1.995-.243 3.57-1.818 3.813-3.812.203-1.669.307-3.725.262-5.895z"/>
        <path fill="#F7EF87" d="M68.411 40.5c0 15.415-12.496 27.911-27.911 27.911-15.415 0-27.911-12.496-27.911-27.911 0-15.415 12.496-27.911 27.911-27.911 15.415 0 27.911 12.496 27.911 27.911z"/>
        <path fill="#EFD176" d="M28.61 15.243C19.141 19.708 12.588 29.338 12.588 40.5c0 15.415 12.496 27.911 27.911 27.911 10.11 0 18.965-5.375 23.862-13.424C31.24 62.199 19.82 28.253 28.61 15.243z"/>
        <path fill="#EDA1AB" d="M29.951 38.012c0-2.713-2.761-4.912-6.168-4.912-3.406 0-6.168 2.2-6.168 4.912 0 2.713 2.762 4.912 6.168 4.912 3.407 0 6.168-2.2 6.168-4.912zM63.385 38.012c0-2.713-2.761-4.912-6.168-4.912-3.406 0-6.168 2.2-6.168 4.912 0 2.713 2.762 4.912 6.168 4.912 3.407 0 6.168-2.2 6.168-4.912z"/>
        <path fill="#4E5660" d="M30.314 33.853c-.655 0-1.187-.53-1.187-1.187 0-.964-.785-1.748-1.75-1.748-.964 0-1.749.784-1.749 1.748 0 .656-.53 1.187-1.186 1.187-.655 0-1.187-.53-1.187-1.187 0-2.272 1.85-4.121 4.123-4.121s4.122 1.849 4.122 4.121c0 .656-.531 1.187-1.186 1.187zM56.558 33.853c-.655 0-1.186-.53-1.186-1.187 0-.964-.785-1.748-1.75-1.748-.964 0-1.75.784-1.75 1.748 0 .656-.53 1.187-1.186 1.187-.655 0-1.186-.53-1.186-1.187 0-2.272 1.849-4.121 4.122-4.121 2.273 0 4.123 1.849 4.123 4.121 0 .656-.531 1.187-1.187 1.187zM40.5 38.704c-1.536 0-2.998-.666-4.009-1.826-.43-.494-.379-1.244.115-1.674.494-.43 1.243-.38 1.674.115.56.643 1.37 1.011 2.22 1.011.85 0 1.66-.368 2.22-1.011.43-.495 1.18-.546 1.674-.115.494.43.546 1.18.115 1.674-1.011 1.16-2.473 1.826-4.009 1.826z"/>
    </g>
</svg>
