<svg xmlns="http://www.w3.org/2000/svg" xmlns:xlink="http://www.w3.org/1999/xlink" width="607" height="529" viewBox="0 0 607 529">
    <defs>
        <path id="prefix__a" d="M0.327 0.189L171.654 0.189 171.654 156.85 0.327 156.85z"/>
        <path id="prefix__c" d="M0.79 0.68L126.805 0.68 126.805 105.77 0.79 105.77z"/>
    </defs>
    <g fill="none" fill-rule="evenodd" opacity=".087">
        <g transform="rotate(-60 193.228 355.56) translate(366.379 .902)">
            <mask id="prefix__b" fill="#fff">
                <use xlink:href="#prefix__a"/>
            </mask>
            <path fill="#9BBDF7" d="M113.12 148.377c-3.271-2.18-3.182-5.714-1.659-18.38 4.14-34.446-26.569-22.768-52.46-22.747-29.376.023-55.367-.493-58.48-37.817-4.213-50.55 60.854-81.406 102.033-64.662 20.532 8.35 47.22 33.406 46.6 57.93-.414 16.445-.697 9.614-16.692 12.758-10.486 2.062-23.913 7.993-19.437 22.363 6.867 22.044 47.48-5.611 57.489 14.835 4.59 9.375-5.533 40.263-15.182 44.193" mask="url(#prefix__b)"/>
        </g>
        <path fill="#FFF" d="M437.74 449.567c-67.468-.006-143.784 10.59-186.638-53.746-18.677-28.038-24.963-64.473-16.607-97.143 3.928-15.36 11.284-31.393 21.535-43.607 15.13-18.025 21.34-1.992 35.469 12.108 26.476 26.423 48.534 58.96 86.549 65.984 35.779 6.61 79.806 7.335 111.773 26.044 25.402 14.868 43.685 42.088 46.394 71.605 2.168 23.636-8.023 18.728-28.989 18.702-23.161-.027-46.324.058-69.486.053" transform="rotate(-60 193.228 355.56)"/>
        <path fill="#9BBDF7" d="M276.378 468.503c-33.863 2.145-68.373.341-102.315.277-26.733-.05-54.138 5.565-34.661-29.271 11.176-19.988 46.729-40.257 70.047-34.998 12.208 2.754 23.075 18.897 31.67 27.463 10.817 10.783 27.862 23.092 35.259 36.529M527.032 480.565l-66.344 67.78c-5.027 5.135-27.041 34.289-33.373 34.098-10.776-.332-16.964-27.797-17.578-34.224-1.98-20.713 9.423-57.1 29.66-66.915 10.653-5.168 32.5-.99 44.382-.993 13.686-.003 29.84-2.34 43.253.254M69.25 447.585c7.642 27.594-31.281 54.744-40.15 79.411-2.235 6.212-3.118 27.346-10.462 30.054C1.037 563.538-.022 526.201 0 519.507c.062-18.9 8.109-28.702 13.925-46.1 3.784-11.316-.695-43.827 5.475-50.967 4.86-5.621 31.798-6.443 39.474-3.645 14.612 5.323 10.376 11.293 10.376 28.79" transform="rotate(-60 193.228 355.56)"/>
        <g transform="rotate(-60 193.228 355.56) translate(305.316 590.815)">
            <mask id="prefix__d" fill="#fff">
                <use xlink:href="#prefix__c"/>
            </mask>
            <path fill="#9BBDF7" d="M48.68.68c8.25 21.852 13.214 62.063 30.869 77.782 11.812 10.517 49.226 4.197 47.175 25.346-22.325 1.301-55.15 6.304-72.805-7.422C35.515 82.076 12.869 52.13.79 32.225L48.68.68" mask="url(#prefix__d)"/>
        </g>
        <path fill="#FFF" d="M482.77 268.899c23.471 18.95 45.622.949 74.444 11.735 17.167 6.425 17.781 11.15 21.652-3.947 5.768-22.499-2.714-22.156-19.731-23.677-23.56-2.105-44.218-9.72-52.524-34.386-2.163-6.425-6.728-29.837-2.653-35.754 5.454-7.922 17.854-6.356 27.989-5.06 30.344 3.884 37.914 20.814 47.257 46.218 8.684 23.612 33.513 42.98 34.505 70.005 1.01 27.523-22.737 31.813-44.77 32.232-32.827.624-69.836 3.992-102.197-1.609-47.997-8.303-82.589-55.199-74.157-103.804 4.257-24.544 16.469-52.932 40.138-60.347 11.945-3.74 46.776-9.046 50.047-1.413 10.814 25.232-21.359 92.562 0 109.807" transform="rotate(-60 193.228 355.56)"/>
    </g>
</svg>
