<svg xmlns="http://www.w3.org/2000/svg" xmlns:xlink="http://www.w3.org/1999/xlink" width="921" height="1045" viewBox="0 0 921 1045">
    <defs>
        <path id="prefix__a" d="M0.49 0.283L257.48 0.283 257.48 235.274 0.49 235.274z"/>
        <path id="prefix__c" d="M0.185 0.021L189.208 0.021 189.208 157.655 0.185 157.655z"/>
    </defs>
    <g fill="none" fill-rule="evenodd" opacity=".087">
        <g transform="translate(549.568 .353)">
            <mask id="prefix__b" fill="#fff">
                <use xlink:href="#prefix__a"/>
            </mask>
            <path fill="#9BBDF7" d="M169.68 222.566c-4.907-3.272-4.773-8.57-2.488-27.57 6.21-51.67-39.853-34.152-78.691-34.121-44.064.034-83.05-.74-87.719-56.725-6.32-75.826 91.281-122.109 153.049-96.994 30.798 12.524 70.829 50.109 69.901 86.896-.621 24.667-1.047 14.421-25.04 19.137-15.728 3.092-35.869 11.989-29.154 33.544 10.3 33.066 71.22-8.416 86.233 22.253 6.884 14.061-8.3 60.394-22.773 66.288" mask="url(#prefix__b)"/>
        </g>
        <path fill="#FFF" d="M656.61 673.351c-101.202-.01-215.675 15.884-279.957-80.62-28.015-42.056-37.444-96.709-24.91-145.714 5.891-23.04 16.925-47.09 32.301-65.41 22.696-27.038 32.011-2.988 53.204 18.162 39.714 39.634 72.801 88.44 129.824 98.975 53.668 9.917 119.71 11.003 167.66 39.067 38.103 22.301 65.527 63.131 69.59 107.407 3.253 35.454-12.033 28.092-43.483 28.053-34.742-.04-69.486.087-104.228.08"/>
        <path fill="#9BBDF7" d="M414.566 701.754c-50.794 3.217-102.558.512-153.472.416-40.098-.076-81.207 8.348-51.991-43.907 16.763-29.98 70.093-60.385 105.07-52.497 18.313 4.132 34.614 28.345 47.505 41.195 16.226 16.175 41.794 34.637 52.888 54.793M790.548 719.848c-33.17 33.89-66.344 67.779-99.516 101.669-7.54 7.704-40.562 51.433-50.06 51.147-16.163-.497-25.445-41.695-26.366-51.335-2.97-31.07 14.133-85.65 44.49-100.373 15.979-7.752 48.75-1.486 66.572-1.489 20.53-.005 44.76-3.51 64.88.381M103.874 670.377c11.464 41.391-46.92 82.116-60.225 119.117-3.351 9.319-4.676 41.018-15.692 45.081C1.555 844.307-.032 788.302.001 778.261c.092-28.352 12.162-43.053 20.887-69.15 5.675-16.975-1.044-65.741 8.212-76.451 7.289-8.432 47.697-9.665 59.211-5.468 21.918 7.985 15.563 16.94 15.563 43.185"/>
        <g transform="translate(458.974 886.223)">
            <mask id="prefix__d" fill="#fff">
                <use xlink:href="#prefix__c"/>
            </mask>
            <path fill="#9BBDF7" d="M72.019.02c12.376 32.778 19.822 93.095 46.304 116.673 17.719 15.775 73.84 6.295 70.764 38.02-33.488 1.951-82.727 9.455-109.21-11.134C52.273 122.115 18.306 77.196.186 47.337L72.02.021" mask="url(#prefix__d)"/>
        </g>
        <path fill="#FFF" d="M724.155 402.349c35.207 28.425 68.433 1.423 111.666 17.602 25.75 9.637 26.672 16.726 32.478-5.92 8.652-33.749-4.071-33.235-29.596-35.517-35.341-3.156-66.328-14.58-78.787-51.577-3.245-9.64-10.091-44.756-3.98-53.632 8.182-11.883 26.783-9.534 41.984-7.59 45.516 5.826 56.872 31.221 70.886 69.328 13.026 35.417 50.27 64.468 51.758 105.007 1.516 41.284-34.106 47.719-67.156 48.347-49.24.937-104.753 5.988-153.295-2.413-71.995-12.455-123.883-82.798-111.235-155.706 6.385-36.816 24.703-79.398 60.207-90.52 17.917-5.612 70.163-13.57 75.07-2.12 16.22 37.849-32.038 138.843 0 164.71"/>
    </g>
</svg>
