<svg xmlns="http://www.w3.org/2000/svg" width="315" height="321" viewBox="0 0 315 321">
    <defs>
        <filter id="a" width="138%" height="170.9%" x="-19%" y="-35.5%" filterUnits="objectBoundingBox">
            <feOffset dy="10" in="SourceAlpha" result="shadowOffsetOuter1"/>
            <feGaussianBlur in="shadowOffsetOuter1" result="shadowBlurOuter1" stdDeviation="5"/>
            <feColorMatrix in="shadowBlurOuter1" result="shadowMatrixOuter1" values="0 0 0 0 0.773650436 0 0 0 0 0.822399048 0 0 0 0 0.895521966 0 0 0 0.629042832 0"/>
            <feMerge>
                <feMergeNode in="shadowMatrixOuter1"/>
                <feMergeNode in="SourceGraphic"/>
            </feMerge>
        </filter>
    </defs>
    <g fill="none" fill-rule="evenodd">
        <g filter="url(#a)" transform="translate(76.796 .683)">
            <path fill="#286ADD" d="M113.12 47.598h-4.53c-13.143 0-23.798-10.655-23.798-23.799S95.447 0 108.59 0h4.53c13.144 0 23.8 10.655 23.8 23.8 0 13.143-10.656 23.798-23.8 23.798"/>
            <path fill="#9BBDF7" fill-rule="nonzero" d="M110.667 33.775c.316-.183.625-.362.925-.538.3-.175.608-.362.925-.562.3-.167.562-.358.787-.575a1.51 1.51 0 0 0 .438-.775c.066-.3.05-.658-.05-1.075-.1-.417-.325-.908-.675-1.475-.167-.283-.33-.563-.488-.837-.158-.275-.32-.546-.487-.813.333-.083.637-.196.912-.337.275-.142.53-.305.763-.488.35-.3.637-.646.862-1.038.225-.391.38-.804.463-1.237.083-.433.087-.875.012-1.325a3.46 3.46 0 0 0-.487-1.275l-2.275-3.775h-.025c-.4-.667-.575-1.137-.525-1.412.05-.275.275-.53.675-.763.15-.1.308-.196.475-.287.166-.092.333-.18.5-.263a58.68 58.68 0 0 1-.588-.95l-.587-.975c-.3.183-.609.367-.925.55a28.83 28.83 0 0 0-.95.575 4.04 4.04 0 0 0-.788.563 1.52 1.52 0 0 0-.45.762c-.075.3-.062.654.038 1.063.1.408.316.895.65 1.462.183.283.346.558.487.825.142.267.296.533.463.8a5.323 5.323 0 0 0-.913.313c-.275.125-.529.279-.762.462-.35.3-.625.65-.825 1.05-.2.4-.334.82-.4 1.262a4.58 4.58 0 0 0 0 1.35c.066.459.208.888.425 1.288 0-.017.008 0 .025.05.016.05.087.183.212.4.125.217.325.55.6 1 .275.45.663 1.075 1.163 1.875.266.433.466.792.6 1.075.133.283.204.52.212.712a.653.653 0 0 1-.15.476 1.823 1.823 0 0 1-.462.362l-.95.575 1.15 1.925zm.7-8.95c-.234 0-.446-.05-.638-.15a1.873 1.873 0 0 1-.5-.375 1.399 1.399 0 0 1-.312-.525 1.316 1.316 0 0 1-.05-.625c0-.45.166-.796.5-1.037.333-.242.691-.371 1.075-.388.433.033.796.2 1.087.5.292.3.43.658.413 1.075-.017.433-.18.796-.488 1.087a1.53 1.53 0 0 1-1.087.438z"/>
            <path fill="#286ADD" d="M102.457 43.838l8.205 13.307 8.888-13.307zM19.207 102.589h-3.071C7.224 102.589 0 95.364 0 86.453c0-8.912 7.224-16.136 16.136-16.136h3.071c8.911 0 16.136 7.224 16.136 16.136 0 8.91-7.225 16.136-16.136 16.136"/>
            <path fill="#9BBDF7" fill-rule="nonzero" d="M17.358 94.317l.759-.388c.246-.127.498-.262.758-.406.246-.12.462-.259.646-.415.185-.157.304-.343.359-.56.055-.217.04-.475-.041-.776-.082-.301-.267-.656-.554-1.065-.136-.205-.27-.406-.4-.605-.13-.198-.263-.394-.4-.587a3.77 3.77 0 0 0 1.374-.595c.287-.217.523-.466.708-.75.184-.282.31-.58.379-.893.068-.313.072-.632.01-.956a2.326 2.326 0 0 0-.4-.921l-1.865-2.726h-.02c-.329-.481-.472-.821-.431-1.02.04-.198.225-.382.553-.55.123-.072.253-.141.39-.208.136-.066.273-.129.41-.19a41.88 41.88 0 0 1-.482-.685l-.482-.704c-.246.132-.499.265-.758.397-.26.132-.52.27-.78.415a3.34 3.34 0 0 0-.645.406c-.185.15-.308.334-.37.55-.061.217-.05.473.031.768.082.295.26.647.533 1.056.15.205.284.403.4.596.116.192.243.385.38.577-.274.06-.523.136-.749.226-.225.09-.434.201-.625.334-.287.216-.513.47-.677.758a2.788 2.788 0 0 0-.328.912 2.916 2.916 0 0 0 0 .974c.055.331.17.641.349.93 0-.012.006 0 .02.036s.072.132.174.289c.103.156.267.397.492.722.226.325.544.776.954 1.354.219.312.383.571.492.776.11.204.167.376.174.514a.436.436 0 0 1-.123.343c-.089.09-.215.178-.38.262l-.778.415.943 1.39zm.574-6.462c-.191 0-.366-.036-.523-.108a1.536 1.536 0 0 1-.41-.271.994.994 0 0 1-.256-.38.842.842 0 0 1-.041-.45c0-.325.136-.575.41-.75.273-.174.567-.267.882-.28.355.025.652.145.891.362a.95.95 0 0 1 .339.776 1.045 1.045 0 0 1-.4.785 1.35 1.35 0 0 1-.892.316z"/>
            <path fill="#286ADD" d="M12.75 100.346l5.563 9.022 6.027-9.022zM187.044 95.36h-3.365c-9.764 0-17.679-7.916-17.679-17.68S173.915 60 183.68 60h3.364c9.765 0 17.68 7.916 17.68 17.68s-7.915 17.68-17.68 17.68"/>
            <path fill="#286ADD" d="M179.87 92.298l6.096 9.886 6.603-9.886z"/>
            <path fill="#9BBDF7" fill-rule="nonzero" d="M185.358 85l.759-.388c.246-.126.498-.262.758-.406.246-.12.462-.259.646-.415.185-.157.304-.343.359-.56.055-.217.04-.475-.041-.776-.082-.301-.267-.656-.554-1.065-.136-.205-.27-.406-.4-.605-.13-.198-.263-.394-.4-.586a3.77 3.77 0 0 0 1.374-.596c.287-.217.523-.466.708-.75.184-.282.31-.58.379-.893.068-.313.072-.631.01-.956a2.326 2.326 0 0 0-.4-.921l-1.865-2.726h-.02c-.329-.48-.472-.82-.431-1.02.04-.198.225-.382.553-.55.123-.072.253-.141.39-.208.136-.066.273-.129.41-.19a41.878 41.878 0 0 1-.482-.685l-.482-.704c-.246.132-.499.265-.758.397-.26.132-.52.27-.78.415a3.34 3.34 0 0 0-.645.406c-.185.15-.308.334-.37.551-.061.217-.05.472.031.767.082.295.26.647.533 1.056.15.205.284.403.4.596.116.192.243.385.38.577-.274.06-.523.136-.749.226-.225.09-.434.202-.625.334-.287.217-.513.47-.677.758a2.788 2.788 0 0 0-.328.912 2.916 2.916 0 0 0 0 .974c.055.331.17.641.349.93 0-.012.006 0 .02.036s.072.132.174.289c.103.156.267.397.492.722.226.325.544.776.954 1.354.219.313.383.571.492.776.11.204.167.376.174.514a.436.436 0 0 1-.123.343c-.089.09-.215.178-.38.262l-.778.415.943 1.39zm.574-6.462c-.191 0-.366-.036-.523-.108a1.536 1.536 0 0 1-.41-.271.994.994 0 0 1-.256-.38.842.842 0 0 1-.041-.45c0-.325.136-.575.41-.75.273-.174.567-.267.882-.28.355.025.652.145.891.362a.95.95 0 0 1 .339.776 1.045 1.045 0 0 1-.4.785 1.35 1.35 0 0 1-.892.316z"/>
        </g>
        <path fill="#D5D5D5" d="M239.145 172.687h19.83l-2.937 21.304H242.23z"/>
        <path fill="#D5D5D5" d="M241.756 189.102c-1.246 0-4.132-.184-6.102-1.741-1.296-1.026-1.955-2.418-1.955-4.137 0-1.903.677-3.396 2.014-4.442 2.16-1.692 5.212-1.468 5.342-1.46l-.24 2.315c-.022.002-2.023-.127-3.286.87-.744.587-1.12 1.502-1.12 2.717 0 1.06.355 1.853 1.082 2.428 1.63 1.287 4.62 1.117 4.65 1.117l.222 2.315c-.038.002-.257.018-.607.018M248.73 168.66a22.24 22.24 0 0 1-3.843-4.213c-1.081-1.597-2.017-3.43-2.44-5.605-.424-2.15-.199-4.697.848-6.827.995-2.17 2.566-3.824 4.168-5.16.448-.366.714-.61 1.023-.882l.894-.813a34.787 34.787 0 0 0 1.66-1.644c1.02-1.075 1.934-2.26 2.19-3.032.122-.367.046-.564-.115-.35-.153.194-.15.606-.27.551-.194-.083-1.187-1.054-2.378-1.946a6.19 6.19 0 1 1 8.482-8.896l.192.238a41.369 41.369 0 0 1 1.906 2.485c.655.96 1.37 2.046 1.966 3.597.59 1.486.918 3.65.49 5.532-.393 1.912-1.275 3.274-2.088 4.32-1.682 2.043-3.347 3.154-4.965 4.223a43.44 43.44 0 0 1-2.421 1.437l-2.282 1.223c-1.155.637-2.149 1.377-2.764 2.23-.66.839-.986 1.83-1.014 3.053-.022 2.445 1.447 5.531 3.254 7.896l.099.13a1.794 1.794 0 0 1-2.593 2.453"/>
        <path fill="#BEBEBE" d="M159.647 320.1s13.658-.492 28.854-.492c14.085 0 28.16.493 28.16.493l-1.105-2.453c-4.855-10.779-23.23-6.585-27.403-17.71-3.476 11.125-22.546 6.931-27.401 17.71l-1.105 2.453z"/>
        <path fill="#BEBEBE" d="M184.677 307.036h7.649v-74.445h-7.649z"/>
        <path fill="#ACACAC" d="M174.944 242.758h27.116v-11.004h-27.116z"/>
        <path fill="#10D69C" d="M155.439 235.547h68.37v-1.85c0-6.274-5.086-11.36-11.36-11.36h-45.65c-6.274 0-11.36 5.086-11.36 11.36v1.85z"/>
        <path fill="#20385D" d="M209.902 222.189s6.063-6.206 2.164-27.496h-49.787s-.705 11.293.439 27.496h47.184z"/>
        <path fill="#043049" d="M179.322 202.294c-24.955 1.552-71.41 7.51-79.891 23.079-2.547 4.672-4.002 10.95-.092 14.683 15.152 14.462 19.51 20.484 46.047 46.336.188.184-.249.09 0 0l10.43-6.201c.417-.147.236.374 0 0-21.858-34.584-26.727-39.436-34.908-44.28 7.87-3.817 30.715-9.656 55.64-12.04 5.453-.521 9.45-5.394 8.928-10.848-.524-5.472-.718-11.067-6.154-10.73"/>
        <path fill="#04355F" d="M209.132 204.707c-.733-5.077-8.35-5.967-13.468-5.646-56.322 3.562-64.283 11.53-66.895 14.641-2.133 2.541-2.224 5.686-2.58 8.9-1.926 17.363-4.59 47.778-8.633 72.733 4.146.726 12.02 1.873 17.673 2.862 0 0 8.597-40.877 11.099-65.667 10.255-2.166 38.29-4.722 60.775-9.16 7.672-1.515 3.084-11.375 2.03-18.663"/>
        <path fill="#1C1C1C" d="M129.348 319.049l2.697-20.235-13.277.271-1.866 7.796-16.175 3.914c-2.696.703-4.529 2.919-4.736 5.697v2.557h33.357z"/>
        <path fill="#35547F" d="M114.845 290.747l23.216 3.857-1.386 8.34-23.215-3.854z"/>
        <path fill="#1C1C1C" d="M167.785 293.664l-10.545-12.77-10.701 6.607 5.805 6.234-12.13 10.637c-2.142 1.431-3.164 3.843-2.74 6.327.069.405.247.784.47 1.129l1.806 2.789s27.4-16.986 27.532-17.309c0 0 1.693-2.069.503-3.644"/>
        <path fill="#35547F" d="M138.797 284.82l17.141-11.644 4.75 6.996-17.14 11.642z"/>
        <path fill="#ED4F73" d="M154.773 188.13c-.19.025-.38.042-.575.051l-44.762 2.17-.709-14.63 40.1-1.945c5.411-13.298 14.07-29.413 14.07-29.413-.05.192.45 0 .45 0l13.986-1.303c1.302 3.343-1.712 3.967-16.711 40.582a7.325 7.325 0 0 1-5.85 4.489"/>
        <path fill="#ED4F73" d="M192.456 136.367l1.423.336a16.006 16.006 0 0 1 12.095 12.86l8.34 51.826c-36.713 9.35-53.993.84-53.993.84l1.514-51.689a14.065 14.065 0 0 1 8.705-13.777l21.916-.396z"/>
        <path fill="#F7B79C" d="M187.247 141.153l-12.049-1.845-.45-25.927 12.048 1.844z"/>
        <path fill="#F7B79C" d="M172.393 136.72l18.622-.34s-.881 10.808-12.034 9.88c-10.198-.85-6.588-9.54-6.588-9.54"/>
        <path fill="#E7C1AD" d="M138.919 188.398c-.026 3.9-3.334 7.043-7.388 7.018-4.055-.025-7.32-3.207-7.294-7.108.026-3.901 3.334-7.043 7.387-7.019 4.055.025 7.32 3.208 7.295 7.109"/>
        <path fill="#E7C1AD" d="M143.605 191.956l-7.634-.047c-1.995-.012-3.616-1.592-3.604-3.511.013-1.92 1.655-3.48 3.65-3.467l7.635.046c1.994.013 3.616 1.593 3.603 3.512-.012 1.92-1.655 3.48-3.65 3.467"/>
        <path fill="#ED4F73" d="M143.471 196.499l-.896-14.068 40.293-2.373 7.546-34.374c1.446-3.635 5.679-5.454 9.457-4.065 3.777 1.391 5.668 5.464 4.224 9.1l-9.232 38.612c-1.026 2.581-3.525 4.347-6.392 4.517l-45 2.65z"/>
        <path fill="#E1E1E1" d="M155.86 195.769l30.944-1.82c3.637-.447 6.73-2.768 8.067-6.052l8.493-33.32-7.082 37.72c-.746 2.44-3.042 4.14-5.686 4.208l-30.99 1.975-3.746-2.711z"/>
        <path fill="#F7B79C" d="M173.21 132.321l-1.634-.08c-7.428-.369-13.15-6.688-12.782-14.116l1.076-21.708 28.53 1.414-1.076 21.71c-.367 7.427-6.687 13.15-14.115 12.78"/>
        <path fill="#000" d="M186.186 113.522s-6.088-5.117-6.71-14.19c0 0-23.767 5.979-24.515-3.935-.69-9.139 9.373-11.915 16.923-8.79 3.982 1.646 11.427 5.585 16.477 6.831 2.051.506 3.886 1.715 5.032 3.49 1.92 2.975 3.275 7.876-3.163 12.86l-4.044 3.734z"/>
        <path fill="#1C1C1C" d="M163.317 111.408c.02.845-.668 1.547-1.537 1.568-.868.02-1.59-.648-1.609-1.493-.02-.845.667-1.548 1.535-1.569.87-.02 1.59.648 1.61 1.494M173.908 111.156c.02.846-.667 1.548-1.536 1.568-.869.021-1.589-.648-1.609-1.492-.02-.846.668-1.549 1.536-1.569.87-.02 1.59.648 1.61 1.493"/>
        <path fill="#000" d="M176.142 107.338a1.607 1.607 0 0 0-.187-3.206l-6.173.147a1.596 1.596 0 0 0-1.568 1.644 1.606 1.606 0 0 0 1.644 1.568l6.173-.147c.037 0 .074-.003.11-.006M163.278 107.644a1.608 1.608 0 0 0-.187-3.207l-4 .096a1.606 1.606 0 1 0 .075 3.212l4.001-.095c.037-.001.074-.003.11-.006"/>
        <path fill="#EEA68E" d="M166.37 112.355l-3.62 3.47c-.432.416-.18 1.138.424 1.217l4.157.545-.961-5.232z"/>
        <path fill="#000" d="M183.238 108.962s-.193 13.304-8.525 10.957c-15.195-4.278-15.805.73-15.805.73s.874 12.562 12.76 12.601c0 0 9.33 1.271 13.28-5.571 0 0 4.748-6.096 2.438-19.095l-4.148.378z"/>
        <path fill="#F7B79C" d="M195.34 114.081a4.931 4.931 0 1 1-9.851-.489 4.931 4.931 0 0 1 9.85.489"/>
        <path fill="#AEAEAE" d="M102.48 142.945l17.207 46.245H63.763l-15.02-41.1c-.914-2.498.937-5.145 3.598-5.145h50.139z"/>
        <path fill="#C9C9C9" d="M102.48 142.945h2.676c1.438 0 2.724.896 3.221 2.245l16.226 44h-4.916l-17.207-46.245z"/>
        <path fill="#A2A2A2" d="M67.954 193.646h51.733v-4.456h-55.77v.418a4.037 4.037 0 0 0 4.037 4.038"/>
        <path fill="#C9C9C9" d="M119.687 193.646H154.2a2.228 2.228 0 0 0 0-4.456h-34.513v4.456z"/>
        <path fill="#FFF" d="M87.416 165.931c1.058 3.195-.219 6.492-2.852 7.364-2.631.872-5.623-1.011-6.682-4.207-1.057-3.195.219-6.492 2.852-7.364 2.632-.872 5.624 1.011 6.682 4.207"/>
        <path fill="#664B3C" d="M21.368 201.283h201.834v-7.637H21.368z"/>
        <path fill="#846455" d="M223.202 201.283h58.233v-7.637h-58.233z"/>
        <path fill="#D5D5D5" d="M36.986 319.837h5.8V201.282h-5.8z"/>
        <path fill="#BEBEBE" d="M75.485 319.837h5.8V201.282h-5.8z"/>
        <path fill="#D5D5D5" d="M223.202 319.837h5.8V201.282h-5.8z"/>
        <path fill="#BEBEBE" d="M261.703 319.837h5.8V201.282h-5.8z"/>
        <path fill="#ABABAB" d="M261.703 205.339h5.8v-4.057h-5.8zM223.202 205.339h5.8v-4.057h-5.8zM75.485 205.339h5.8v-4.057h-5.8zM36.986 205.339h5.8v-4.057h-5.8zM184.677 248.6h7.649v-5.842h-7.649z"/>
        <path fill="#D5D5D5" d="M313.249 320.9H.819c-.452 0-.818-.434-.818-.972s.366-.973.819-.973h312.429c.454 0 .82.435.82.973s-.366.973-.82.973"/>
    </g>
</svg>
