<svg xmlns="http://www.w3.org/2000/svg" xmlns:xlink="http://www.w3.org/1999/xlink" width="416" height="319" viewBox="0 0 416 319">
    <defs>
        <path id="a" d="M.464.306h32.29v45.297H.464z"/>
        <path id="c" d="M0 .725h418.541v13.637H.001z"/>
        <filter id="d" width="119.3%" height="163.9%" x="-9.6%" y="-32%" filterUnits="objectBoundingBox">
            <feOffset dy="8" in="SourceAlpha" result="shadowOffsetOuter1"/>
            <feGaussianBlur in="shadowOffsetOuter1" result="shadowBlurOuter1" stdDeviation="4"/>
            <feColorMatrix in="shadowBlurOuter1" result="shadowMatrixOuter1" values="0 0 0 0 0.773650436 0 0 0 0 0.822399048 0 0 0 0 0.895521966 0 0 0 0.629042832 0"/>
            <feMerge>
                <feMergeNode in="shadowMatrixOuter1"/>
                <feMergeNode in="SourceGraphic"/>
            </feMerge>
        </filter>
    </defs>
    <g fill="none" fill-rule="evenodd">
        <path fill="#FFF" d="M251.798 291.522l-1.939 14.562 5.615 1.947 2.849-15.584z"/>
        <g transform="translate(-3 67.968)">
            <path fill="#002938" d="M261.77 231.57s3.288 4.23 8.379 5.797c5.09 1.569 9.679 3.522 9.244 6.439 0 0-7.696 3.383-19.982-.807l-.025 1.236-8.112-.504.21-10.234 6.736.59-.48-1.023 4.03-1.494z"/>
            <path fill="#124656" d="M264.79 243.251c11.027 2.931 13.902-.013 14.554-.207.067.253.086.508.05.762 0 0-7.697 3.383-19.982-.807l-.027 1.237-8.112-.504.043-2.041c2.894.226 5.343-.6 13.474 1.56"/>
            <path fill="#FFF" d="M229.117 224.784l-2.947 14.393-5.943-.004 2.423-15.656z"/>
            <path fill="#002938" d="M219.739 231.13s-3.737 3.838-8.971 4.83c-5.235.991-10.011 2.423-9.904 5.37 0 0 7.273 4.218 19.948 1.42l-.112 1.232 8.117.401.931-10.193-6.76-.165.59-.963-3.84-1.932z"/>
            <path fill="#124656" d="M215.439 242.403c-11.285 1.686-13.816-1.559-14.442-1.825a1.914 1.914 0 0 0-.132.752s7.27 4.217 19.946 1.42l-.112 1.232 8.119.402.185-2.033c-2.902-.098-5.243-1.192-13.564.052"/>
            <path fill="#04355F" d="M275.388 107.83s8.614 61.03-11.502 121.251c0 0-6.191 4.198-11.582-.322 0 0 7.084-57.894 4.866-92.143l-4.32.662s-10.806 29.673-11.963 37.766c-1.158 8.097-8.31 52.024-10.037 55.653 0 0-8.864 2.365-11.375-2.368 0 0 2.247-33.857 3.06-48.187.605-10.645 13.282-63.01 13.282-63.01l39.571-9.302z"/>
            <path fill="#F3BFB2" d="M250.316 35.982l1.23 18.243 14.432-.913-1.55-13.74z"/>
            <path fill="#ED4F73" d="M235.778 116.305s22.122 9.872 42.765 3.515c0 0 3.94-37.628 6.042-60.442 0 0-12.34-4.938-26.25-5.923-7.071-.501-19.924.748-27.58 2.38 0 0 3.147 42.928 5.023 60.47"/>
            <path fill="#FFF" d="M255.51 51.85l-1.579 3.323 2.563 3.51-7.348 45.49 5.36 7.369 7.647-5.914-.812-46.284 2.804-4.052-3.63-3.194z"/>
            <path fill="#FFF" d="M247.129 53.892l5.252 7.721 4.622-9.838-6.297-3.677zM270.272 55.104l-4.673 6.347-5.582-9.328 6.838-2.962z"/>
            <path fill="#ED4F73" d="M284.585 59.378s12.982 20.062 16.816 31.85c0 0-4.505 4.716-10.977 5.04L279.061 78.62l5.524-19.242zM230.82 56.016s-12.669 20.263-16.318 32.106c0 0 4.58 4.646 11.055 4.87l11.087-17.823-5.825-19.153z"/>
            <path fill="#FFDACB" d="M280.17 118.242s-4.057-3.79-6.248-2.682c0 0-11.276 9.048-.63 2.402 0 0-6.053 11.159 1.768.412 0 0-4.093 12.93 1.8 1.033 0 0-4.617 12.458 1.23 2.183 0 0 .835 4.2 4.233 2.283 3.398-1.916 13.964-15.173 13.964-15.173l-8.277-.832-7.84 10.374z"/>
            <path fill="#ED4F73" d="M290.747 95.254s-5.27 14.362-10.31 20.854c0 0 2.116 4.884 5.533 5.836 0 0 14.86-14.717 17.411-23.579 0 0-2.073-9.005-3.978-12.154-1.904-3.148-8.656 9.043-8.656 9.043M225.863 90.14s4.111 14.001 9.133 20.506c0 0-1.01 5.254-4.429 6.197 0 0-14.82-14.76-17.346-23.627 0 0 2.099-9 4.011-12.142 1.913-3.145 8.63 9.065 8.63 9.065"/>
            <path fill="#FFDACB" d="M238.607 109.334c-3.409-.967-7.479 5.104-8.303 7.286 1.326 1.555 2.276 2.483 2.765 2.606 3.593.898 3.277-3.216 3.277-3.216 7.975 8.02.565-2.347.565-2.347 8.432 9.517 1.378-1.424 1.378-1.424 9.897 7.95 1.508-.84 1.508-.84 11.426 3.411-1.19-2.065-1.19-2.065"/>
            <g transform="translate(240.244)">
                <mask id="b" fill="#fff">
                    <use xlink:href="#a"/>
                </mask>
                <path fill="#F3BFB2" d="M14.871.568C5.504 1.801 4.317 11.884 4.317 11.884s1.03 4.163 1.315 9.978c-.873-1.158-2.323-1.623-3.79-.963-3.112 1.398-.62 11.231 4.13 10.292.254 2.754 1.445 6.068 1.812 6.804 1.388 2.785 7.35 6.962 12.579 7.538 5.228.576 11.828-2.429 12.21-8.57.528-8.51-.266-26.548-.266-26.548S31.41-1.607 14.871.568" mask="url(#b)"/>
            </g>
            <path fill="#000" d="M250.68 9.436c-1.019-2.13-6.897-2.073-7.936.596-1.04 2.668-.658 10.867-.658 10.867 3.453-.963 3.673 2.004 3.673 2.004l.412 4.467 2.478-.303-.023-9.476c1.666-.917 2.192-2.448 2.192-2.448s.883-3.576-.137-5.707M264.919 14.27s.005-.693.531-1.458c.254-.39.638-.79 1.161-1.104.525-.299 1.19-.538 1.897-.525.35-.015.698.056 1.03.14.332.078.623.253.903.394.26.169.48.372.683.558.198.19.322.423.45.616.268.375.337.784.403 1.043.055.27.06.433.06.433s-.176-.021-.436-.075c-.265-.046-.588-.163-.962-.228-.367-.09-.75-.148-1.103-.214-.183 0-.351-.044-.518-.047-.17.01-.33-.038-.498-.01-.644-.026-1.436.115-2.201.233-.733.142-1.4.244-1.4.244M253.168 14.923s.005-.694.531-1.459c.254-.389.638-.79 1.161-1.103.525-.299 1.19-.538 1.897-.525.35-.015.697.056 1.03.14.332.078.623.253.903.394.26.169.48.372.683.558.198.19.322.423.45.616.268.375.337.783.403 1.043.055.27.06.432.06.432s-.176-.02-.436-.074c-.265-.046-.588-.163-.962-.228-.367-.09-.75-.148-1.103-.215-.183.002-.351-.043-.519-.047-.17.01-.329-.037-.497-.009-.644-.026-1.436.115-2.201.233-.733.142-1.4.244-1.4.244"/>
            <path fill="#000" d="M262.857 30.692s-7.415-1.467-8.547.864c-1.132 2.33-1.495 4.872-3.56 3.976-2.067-.895-2.05-19.45-2.05-19.45l-2.681 6.197s-4.475 24.565 10.45 25.034c15.657.492 17.894-4.01 16.432-12.245 0 0-1.718.85-2.596-1.37-.878-2.219.776-4.201-7.448-3.006"/>
            <path fill="#FFF" d="M256.835 33.302l8.684.85s-2.96 3.491-8.684-.85"/>
            <path fill="#D8A196" d="M263.49 28.914l1.19-10.54 3.829 9.262z"/>
            <path fill="#002938" d="M266.352 19.248s.296.373.741.876c.22.253.482.533.77.794.145.13.303.245.46.34.153.11.323.166.478.198a.92.92 0 0 0 .469.002c.151-.054.318-.11.469-.203.138-.123.302-.205.434-.33.124-.133.252-.253.374-.366.235-.233.418-.457.555-.605a4.89 4.89 0 0 1 .228-.232s-.022.116-.082.313c-.076.188-.123.492-.3.807-.162.323-.387.69-.76 1.018-.19.152-.429.309-.692.396-.286.076-.581.107-.876.038a2.055 2.055 0 0 1-.753-.347c-.224-.144-.387-.332-.544-.506a4.239 4.239 0 0 1-.645-1.057c-.275-.66-.326-1.136-.326-1.136M253.615 19.094s.296.373.742.876c.219.253.481.532.77.794.145.129.301.245.46.34.152.11.322.166.477.198a.93.93 0 0 0 .468.002c.151-.055.318-.11.468-.204.14-.122.303-.205.437-.329.124-.133.252-.254.373-.366.235-.233.418-.457.555-.605.137-.149.228-.232.228-.232s-.023.116-.082.313c-.077.187-.124.492-.299.807-.163.322-.389.69-.761 1.018-.19.152-.428.308-.692.395-.286.077-.581.108-.876.039a2.055 2.055 0 0 1-.752-.348c-.225-.143-.388-.331-.545-.505a4.145 4.145 0 0 1-.645-1.059c-.276-.66-.326-1.134-.326-1.134"/>
            <path fill="#000" d="M359.35 42.568s-9.357-5.441-16.755 2.176c-7.4 7.616-11.098 18.714-7.617 35.906 0 0 12.187 5.223 21.109 3.481 8.921-1.74 3.264-41.563 3.264-41.563"/>
            <path fill="#A2A2A2" d="M383.61 245.706h4.554v-61.48h-4.555zM355.83 245.706h4.554v-61.48h-4.554z"/>
            <path fill="#FF8484" d="M323.498 183.316a3.643 3.643 0 0 0 3.642 3.643h64.667a3.643 3.643 0 0 0 3.642-3.643v-4.554a3.643 3.643 0 0 0-3.642-3.643H327.14a3.643 3.643 0 0 0-3.642 3.643v4.554z"/>
            <path fill="#BEBEBE" d="M323.498 183.316a3.643 3.643 0 0 0 3.642 3.643h64.667a3.643 3.643 0 0 0 3.642-3.643v-4.554a3.643 3.643 0 0 0-3.642-3.643H327.14a3.643 3.643 0 0 0-3.642 3.643v4.554z"/>
            <path fill="#FFF" d="M329.164 206.483s1.408-8.988-.672-.794c-2.08 8.195-4.44 27.37-4.44 27.37l-6.318 10.37-5.164.57 5.036-10.723s2.35-20.049 1.396-26.415c-.953-6.366 8.692-9.174 10.162-.378"/>
            <path fill="#FFF" d="M323.908 232.495s2.439 1.804 2.046 5c-.393 3.195-1.092 8.132-1.092 8.132l-.992.026-.475-5.8s-1.82 5.308-2.921 5.845c-1.102.536-10.028 3.1-11.065 1.224-1.036-1.877 3.672-4.306 3.672-4.306s2.448 1.14 4.708-.936c2.26-2.075 6.119-9.185 6.119-9.185"/>
            <path fill="#004051" d="M309.953 163.777c-6.093 1.742 1.735 72.957 1.735 72.957s9.365 5.714 17.666-.953l2.53-54.522.7-.072s2.876.718 7.109 1.397c.833-9.89 1.983-19.76 3.9-29.473-14.358 4.11-30.47 9.761-33.64 10.666"/>
            <path fill="#002938" d="M308.257 163.615c-3.102 5.526 3.431 73.12 3.431 73.12s9.366 5.713 17.667-.954l2.53-54.522.7-.072s2.874.718 7.107 1.397c.833-9.89 1.983-19.76 3.9-29.473-14.357 4.11-33.117 6.555-35.335 10.504"/>
            <path fill="#FF8484" d="M396.816 150.983a3.643 3.643 0 0 1-3.643 3.643h-47.361a3.644 3.644 0 0 1-3.644-3.643v-45.539a3.644 3.644 0 0 1 3.644-3.643h47.36a3.643 3.643 0 0 1 3.644 3.643v45.54z"/>
            <path fill="#BEBEBE" d="M396.816 150.983a3.643 3.643 0 0 1-3.643 3.643h-47.361a3.644 3.644 0 0 1-3.644-3.643v-45.539a3.644 3.644 0 0 1 3.644-3.643h47.36a3.643 3.643 0 0 1 3.644 3.643v45.54z"/>
            <path fill="#AD7E70" d="M349.405 161.523c-.236-1.18-.646-2.635-1.123-4.322-2.757-9.764-9.573-25.38-10.25-26.982-.986-2.328 2.758-18.622 2.758-18.622l-14.194-4.445s-4.337 24.126 0 32.378c3.725 7.091 14.842 21.422 20.049 24.73a8.723 8.723 0 0 1 2.76-2.737"/>
            <path fill="#AD7E70" d="M343.65 161.01s3.646 6.56 4.731 6.349c.707-.138-1.577-4.232-1.577-4.232s3.254 4.656 3.647 3.916c.394-.74-1.478-3.599-1.478-3.599s2.563 3.387 2.76 2.858c.197-.53-1.874-4.446-1.874-4.446s4.831 6.138-.098-2.22c0 0 7.196 1.903-.788-1.905-7.984-3.81-5.323 3.28-5.323 3.28"/>
            <path fill="#FFF" d="M351.483 207.732s7.101 5.468 7.67 13.904c.57 8.434 2.384 10.709 2.384 10.709l-2.784 11.819-4.73 2.148 1.453-11.76s-10.65-17.549-13.535-23.304c-2.884-5.754 5.41-11.421 9.542-3.516"/>
            <path fill="#FFF" d="M361.223 231.853s2.88.956 3.5 4.116c.618 3.16 1.49 8.069 1.49 8.069l-.937.334-2.255-5.366s-.078 5.61-.958 6.464c-.882.852-8.568 6.062-10.137 4.601-1.569-1.46 2.153-5.234 2.153-5.234s2.681.322 4.183-2.352c1.503-2.674 2.961-10.632 2.961-10.632"/>
            <path fill="#004051" d="M326.568 173.719l20.63 65.073c10.792 2.863 19.435-6.558 19.435-6.558s-5.056-26.454-12.667-60.329c-9.38 1.55-17.99.456-27.398 1.814"/>
            <path fill="#AD7E70" d="M364.653 69.667c-.47 2.972 1.349 5.73 4.062 6.159 2.712.428 5.293-1.634 5.762-4.607.47-2.973-1.347-5.729-4.06-6.159-2.714-.428-5.294 1.634-5.764 4.607M362.637 68.867l-.634 16.349 7.575 2.179s-7.665 8.859-19.308 8.156c-11.641-.7-12.71-7.32-12.71-7.32l12.22-2.852.16-8.258 12.697-8.254z"/>
            <path fill="#7F584F" d="M349.783 84.092l.157-8.242 13.015-10.475-.953 16.983c-1.468-.06-10.072 1.264-12.219 1.734"/>
            <path fill="#AD7E70" d="M358.574 46.454s-12.003-1.321-15.704 6.882c-3.702 8.204-6.897 19.049-.62 25.508 6.278 6.46 17.488 4.552 23.51-1.878 6.021-6.427 11.186-23.995-7.186-30.512"/>
            <path fill="#7F584F" d="M349.45 63.6s-1.045 1.546-3.605 3.45l1.883 2.406"/>
            <path fill="#061218" d="M350.323 55.743s-.114-.059-.311-.128c-.182-.082-.453-.162-.754-.27-.14-.066-.325-.073-.488-.128-.172-.038-.338-.107-.527-.115-.184-.026-.374-.034-.558-.078-.183-.047-.384.005-.574-.002-.194.004-.388-.038-.58-.008-.19.049-.385.06-.575.088-.186.03-.377.035-.561.044a6.077 6.077 0 0 1-.503.13c-.634.144-1.158.161-1.158.161s.28-.387.85-.848c.142-.116.298-.243.473-.358.192-.084.397-.175.619-.247.22-.07.449-.166.69-.223.24-.051.502-.031.756-.046.256.022.515-.011.759.062.247.06.482.154.708.228.233.055.415.22.598.332.179.124.35.227.472.377.263.266.444.518.537.72.103.186.12.313.127.309M344.523 59.966c-.12 1.096.277 2.038.888 2.103.61.068 1.201-.766 1.321-1.86.12-1.096-.278-2.038-.888-2.106-.61-.067-1.201.768-1.321 1.863M355.148 62.084c-.12 1.095.276 2.037.887 2.103.61.067 1.202-.766 1.322-1.861.12-1.096-.278-2.039-.888-2.105-.61-.067-1.201.768-1.321 1.863"/>
            <path fill="#7F584F" d="M346.592 72.606l1.428.316c.42.082.89.192 1.392.268.5.08 1.025.156 1.547.17.259.007.521.04.774.011.254-.014.507-.004.747-.05a7.558 7.558 0 0 0 1.34-.248c.403-.098.742-.211.984-.3.247-.08.403-.121.403-.121-.021-.03-.275.577-1.038 1.125-.18.157-.397.289-.645.4-.24.133-.503.254-.793.32-.568.203-1.214.236-1.844.225-.628-.047-1.247-.163-1.787-.373a6.084 6.084 0 0 1-1.393-.712c-.76-.513-1.115-1.031-1.115-1.031"/>
            <path fill="#FCC24C" d="M372.971 112.873l16.193-4.151c-.347-1.809-4.468-19.478-14.76-21.567-2.269-.462-6.841-1.252-8.852-1.392-1.346 3.322-3.059 5.332-8.921 5.332-5.858 0-9.093-1.798-10.446-5.114-1.967.142-4.668.75-6.882 1.201-10.942 2.221-13.9 19.363-13.9 19.363l10.14 5.209c-2.32 9.998 7.27 12.418 7.27 12.418s19.17.757 29.67-1.782c.122-.03 1.145-.51 1.262-.54l-.774-8.977z"/>
            <path fill="#FFF" d="M387.858 247.283h18.696v-89.49h-18.696z"/>
            <path fill="#004051" d="M383.071 142.452s13.491 27.419 2.177 33.947c-11.317 6.529-35.69.435-35.69.435l-21.325 2.177s-6.529-16.54-1.306-19.586c5.223-3.046 56.144-16.973 56.144-16.973"/>
            <path fill="#FFF" d="M346.186 85.981s3.046 5.223 10.445 5.115c0 0-4.025 7.071-9.248 4.133-6.458-3.63-1.197-9.248-1.197-9.248M365.553 85.763s-.871 5.006-8.922 5.333c0 0 3.401 7.975 9.357 2.937 4.243-3.59-.435-8.27-.435-8.27"/>
            <path fill="#FCC24C" d="M342.377 115.903l-1.524 34.165s32.642 1.958 44.83-6.745l-8.924-25.897-34.382-1.523z"/>
            <path fill="#AD7E70" d="M374.666 130.22c-.114.269-.414.962-.827 1.931 4.916.24 4.507 5.874 12.78 7.512 5.09-8.925-.066-30.506-.066-30.506l-14.145 3.917s3.243 14.818 2.258 17.146"/>
            <path fill="#AD7E70" d="M384.004 124.99c-3.43.753-17.406 3.83-25.657 6.951-1.547.586-2.882 1.092-3.91 1.588a9.698 9.698 0 0 1-.42 4.007c5.565 2.547 22.906 3.683 30.436 2.71.681-.088 1.41-.297 2.166-.583-2.03-4.711-2.993-9.878-2.615-14.673"/>
            <path fill="#AD7E70" d="M345.51 133.165c1.71-1.647 14.627-.561 14.627-.561s-4.177 2.472-2.187 2.148c-.876 1.695-1.687 3.06-2.304 3.712-2.597 2.738-4.564-.909-4.564-.909-2.486 11.166-1.762-1.669-1.762-1.669-2.063 12.681-1.957-.444-1.957-.444-4.175 12.167-1.75.124-1.75.124-7.955 9.177-.103-2.4-.103-2.4"/>
            <path fill="#FFF" d="M372.408 113.074l15.668-4.352.652 3.7-15.668 3.155zM335.34 111.38l-9.937-4.785-1.16 2.313 9.549 5.478a8.613 8.613 0 0 1 1.549-3.007"/>
            <path fill="#A2A2A2" d="M355.088 147.79c0 1.311-.933 2.377-2.088 2.38l-66.33.17c-1.153.003-2.09-1.057-2.09-2.37-.002-1.31.933-2.377 2.087-2.38l66.33-.17c1.154-.003 2.09 1.057 2.091 2.37"/>
            <path fill="#C9C9C9" d="M352.997 145.419l-66.33.17 46.146-.118c.938.085 1.69 1.474 1.692 3.212 0 .567-.1 1.07-.238 1.535l18.734-.048c1.154-.004 2.088-1.07 2.088-2.381-.001-1.311-.938-2.373-2.092-2.37"/>
            <path fill="#AEAEAE" d="M335.706 144.556c.01.931-.834 1.693-1.887 1.703l-48.554.406c-1.05.008-1.912-.74-1.922-1.672L283 112.107c-.01-.93.836-1.692 1.887-1.7l48.555-.407c1.051-.01 1.912.74 1.92 1.67l.344 32.886z"/>
            <circle cx="309.5" cy="128.5" r="3.5" fill="#FFF"/>
            <path fill="#C9C9C9" d="M333.71 109.629l-.598.005c.574.29.982.81.989 1.438l.346 33.145c.009.88-.748 1.585-1.716 1.68l1.357-.01c1.05-.009 1.896-.771 1.885-1.702l-.342-32.886c-.01-.933-.87-1.68-1.922-1.67"/>
            <path fill="#000" d="M353.258 46.92s-2.177 7.399 10.88 18.497c0 0-2.611 19.585-2.136 19.798 3.965 1.777 15.41-2.606 15.41-2.606s4.353-20.891-1.74-31.772c-6.093-10.88-17.626-12.621-22.414-3.918"/>
            <path fill="#061218" d="M361.9 58.965s-.105-.08-.295-.187c-.17-.117-.434-.248-.722-.415-.133-.094-.322-.134-.48-.223-.17-.072-.33-.171-.524-.217-.187-.062-.381-.108-.564-.188-.183-.082-.4-.072-.6-.115-.199-.036-.393-.115-.598-.125-.207.012-.41-.018-.61-.026-.2-.01-.396-.042-.586-.068-.188.016-.371.023-.542.025-.68.02-1.213-.067-1.213-.067s.373-.326 1.052-.666c.17-.086.354-.184.559-.257.211-.044.439-.094.678-.119.238-.027.49-.074.744-.082.254-.003.516.067.775.102.256.072.523.091.758.207.24.106.46.243.676.36.227.097.386.292.554.44.159.157.32.288.42.462.223.316.37.602.435.822.077.208.076.34.082.337"/>
            <path fill="#FFDFD5" d="M60.026 225.18l-3.778 14.197 5.322 2.646 4.81-15.094z"/>
            <path fill="#AEAEAE" d="M65.92 234.02s-.327 3.037 1.838 4.379c4.526 2.81 9.151 4.726 8.348 7.562 0 0-2.33 4.814-13.981-.907l-.183 1.225-7.982-1.533 1.512-10.124 6.606 1.44-.345-1.075 4.187-.967z"/>
            <path fill="#A2A2A2" d="M65.63 244.863c10.712 3.583 10.257.674 10.526.337.031.26.02.515-.05.762 0 0-2.329 4.813-13.98-.909l-.183 1.225-7.983-1.533.301-2.02c2.844.593 3.391-.531 11.369 2.138"/>
            <path fill="#FFDFD5" d="M102.143 226.161l-.863 14.667 5.742 1.528 1.696-15.75z"/>
            <path fill="#AEAEAE" d="M109.685 233.645s.287 3.04 2.676 3.925c4.997 1.846 9.912 2.799 9.692 5.74 0 0-1.32 5.18-13.88 1.904l.065 1.238-8.128.093-.542-10.222 6.761.091-.552-.984 3.908-1.785z"/>
            <path fill="#A2A2A2" d="M111.569 244.326c11.212 1.37 10.185-1.39 10.38-1.773.085.25.123.5.104.757 0 0-1.32 5.18-13.88 1.905l.065 1.237-8.127.092-.108-2.038c2.904.012 3.215-1.198 11.566-.18M35.696 242.554h4.826v-71.819h-4.826zM47.882 240.812h4.824v-71.819h-4.824zM95.757 240.812h4.826v-71.819h-4.826zM86.617 242.554h4.826v-71.819h-4.826z"/>
            <path fill="#FF8484" d="M27.044 180.59a3.643 3.643 0 0 0 3.642 3.643h47.361a3.644 3.644 0 0 0 3.644-3.643v-66.428a3.644 3.644 0 0 0-3.644-3.643h-47.36a3.643 3.643 0 0 0-3.643 3.643v66.428z"/>
            <path fill="#BEBEBE" d="M27.044 180.59a3.643 3.643 0 0 0 3.642 3.643h47.361a3.644 3.644 0 0 0 3.644-3.643v-66.428a3.644 3.644 0 0 0-3.644-3.643h-47.36a3.643 3.643 0 0 0-3.643 3.643v66.428z"/>
            <path fill="#BEBEBE" d="M36.183 180.59a3.643 3.643 0 0 0 3.643 3.643h47.36a3.644 3.644 0 0 0 3.645-3.643v-66.428a3.644 3.644 0 0 0-3.644-3.643h-47.36a3.643 3.643 0 0 0-3.644 3.643v66.428z"/>
            <path fill="#FF8484" d="M100.361 180.705a3.643 3.643 0 0 1-3.642 3.643H32.053a3.643 3.643 0 0 1-3.643-3.643v-4.554a3.643 3.643 0 0 1 3.643-3.643h64.666c2.01 0 3.642 1.63 3.642 3.643v4.554z"/>
            <path fill="#BEBEBE" d="M100.361 180.705a3.643 3.643 0 0 1-3.642 3.643H32.053a3.643 3.643 0 0 1-3.643-3.643v-4.554a3.643 3.643 0 0 1 3.643-3.643h64.666c2.01 0 3.642 1.63 3.642 3.643v4.554z"/>
            <path fill="#BFDEDC" d="M112.735 163.76l-.306 12.23-.068 55.683c-12.1 7.163-14.504 1.625-14.504 1.625s-8.036-23.959-11.74-58.593c12.067-2.476 14.59-8.28 26.618-10.946"/>
            <path fill="#BFDEDC" d="M91.246 154.762s24.118-16.008 21.284 14.204c-2.834 30.212-23.81 7.835-23.81 7.835l2.526-22.039z"/>
            <g fill="#5F779C">
                <path d="M112.735 163.76l-.306 12.23-.068 55.683c-12.1 7.163-14.504 1.625-14.504 1.625s-8.036-23.959-11.74-58.593c12.067-2.476 14.59-8.28 26.618-10.946"/>
                <path d="M91.246 154.762s24.118-16.008 21.284 14.204c-2.834 30.212-23.81 7.835-23.81 7.835l2.526-22.039z"/>
            </g>
            <path fill="#FFDFD5" d="M92.336 129.512c-.085.285.443.962.887 1.931-5.277.24-4.838 5.876-13.718 7.512-5.466-8.924.557-32.51.557-32.51l12.387-.063s1.143 18.932-.113 23.13"/>
            <path fill="#FFDFD5" d="M87.456 125.288c3.31 1.778 16.797 9.034 24.383 14.569 1.424 1.039 2.651 1.935 3.564 2.725a9.064 9.064 0 0 0-.718 3.969c-6.453.725-24.61-3.535-32.071-6.787-.677-.295-1.365-.72-2.06-1.227 3.44-3.887 5.913-8.54 6.902-13.249"/>
            <path fill="#000" d="M67.557 41.057s11.259-3.798 17.209 2.645c5.95 6.445-.193 18.504 4.465 24.572 4.659 6.064 11.74 19.632-3.396 27.85-15.136 8.216-18.67-6.952-18.67-6.952l.392-48.115z"/>
            <path fill="#9BBDF7" d="M104.092 173.135l-5.723 10.814-27.79 52.511c-10.01.435-13.926-8.705-13.926-8.705s6.62-24.018 18.732-56.676c11.907 3.158 16.75-.914 28.707 2.056"/>
            <path fill="#9BBDF7" d="M96.033 161.22c0 10.61-12.37 19.212-27.627 19.212-15.258 0-27.627-8.601-27.627-19.211 0-10.611 12.369-19.213 27.627-19.213s27.627 8.602 27.627 19.213"/>
            <path fill="#FFDFD5" d="M58.772 66.511c-.12 3.007-2.442 5.356-5.186 5.247-2.745-.11-4.873-2.636-4.753-5.644.12-3.006 2.442-5.356 5.186-5.246 2.745.11 4.873 2.635 4.753 5.643M60.91 69.178l.635 16.349-14.601 3.015s14.691 8.023 26.333 7.32c11.642-.7 12.712-7.32 12.712-7.32L73.768 85.69l-.16-8.258-12.697-8.254z"/>
            <path fill="#FFDFD5" d="M73.764 84.403l-.155-8.242-13.015-10.475.952 16.983c1.467-.059 10.073 1.264 12.218 1.734"/>
            <path fill="#FFDFD5" d="M69.268 44.932s12.029 1.05 14.058 9.818c2.027 8.768 3.043 20.028-4.376 25.136-7.418 5.11-18.037 1.048-22.688-6.43-4.651-7.482-6.286-25.721 13.006-28.524"/>
            <path fill="#000" d="M74.868 63.53s.722 1.72 2.862 4.088l-2.318 1.991M81.268 63.164c-.097 1.098-.67 1.944-1.281 1.89-.611-.053-1.029-.987-.932-2.083.095-1.098.67-1.946 1.28-1.892.612.053 1.03.987.933 2.085M70.857 62.095c-.097 1.099-.67 1.945-1.28 1.891-.613-.053-1.03-.987-.933-2.084.095-1.098.668-1.945 1.28-1.892.612.055 1.03.989.933 2.085M67.426 72.04s.453-.438 1.3-.786a6.18 6.18 0 0 1 1.508-.414c.572-.095 1.201-.084 1.827-.004.619.119 1.244.28 1.759.593.271.124.505.297.713.475.219.16.404.333.55.522.638.692.762 1.337.788 1.312 0 0-.144-.071-.37-.2a8.803 8.803 0 0 0-.902-.493 7.562 7.562 0 0 0-1.262-.514c-.226-.093-.476-.136-.723-.2-.24-.08-.503-.1-.76-.146-.513-.092-1.041-.123-1.548-.147-.508-.026-.99-.014-1.417-.02l-1.463.022"/>
            <path fill="#286ADD" d="M49.435 113.307l-16.421-6.537c.372-1.811 3.834-17.091 14.882-19.18a56.73 56.73 0 0 1 6.915-.866c1.446 3.321 6.712 5.785 13.004 5.785 6.287 0 11.549-2.46 13-5.777 2.113.142 4.155.99 6.412 1.86 11.424 4.407 9.792 20.401 9.792 20.401l-7.41 3.195c3.656 11.494-6.626 14.269-6.626 14.269s-21.755-1.093-33.024-3.633c-.13-.028-1.229-.507-1.354-.54l.83-8.977z"/>
            <path fill="#000" d="M70.144 45.179s-2.176 15.668-14.58 18.498c0 0-.87-4.136-4.352-1.959-3.482 2.175-1.088 9.793 4.57 8.269 0 0 1.087 5.06 5.82 9.14l.083 6.854s-9.712.762-17.546 2.938c0 0-9.683-4.788-5.657-16.103 3.725-10.47 6.636-6.964 9.248-18.932 2.611-11.97 9.837-16.367 18.28-15.015 5.44.87 4.134 6.31 4.134 6.31"/>
            <path fill="#000" d="M62.543 55.77s.204-.699.99-1.406c.383-.36.905-.715 1.532-.952.31-.126.642-.229.99-.294.347-.081.707-.078 1.065-.107.355.029.715.032 1.056.104.34.073.673.16.977.27.615.228 1.142.518 1.546.835.427.273.7.624.903.833.197.225.297.363.297.363s-.18-.012-.47-.056c-.294-.033-.675-.15-1.143-.212a8.007 8.007 0 0 1-.725-.14c-.257-.028-.524-.054-.79-.112-.267-.05-.548-.031-.822-.08l-.832-.037c-.274.02-.552.005-.821.036-.27.032-.543.03-.8.09-.523.076-1.012.203-1.448.33-.863.257-1.505.535-1.505.535M75.828 56.099s.127-.623.8-1.259a3.548 3.548 0 0 1 1.36-.817c.56-.217 1.214-.25 1.841-.196.306.065.624.098.905.211.287.093.566.205.805.352.502.263.899.598 1.206.914.32.293.509.624.654.831.137.217.202.35.202.35s-.153-.03-.397-.096c-.248-.06-.565-.196-.952-.309a6.47 6.47 0 0 1-.602-.198c-.207-.072-.437-.106-.652-.188-.215-.091-.455-.087-.675-.163-.224-.079-.456-.07-.682-.112-.225-.041-.45-.045-.674-.054-.218.025-.444-.016-.654.029-.432.031-.84.132-1.208.23a9.477 9.477 0 0 0-1.277.475"/>
            <path fill="#286ADD" d="M83.636 117.862l4.352 28.725s-21.978 6.092-46.133 1.958l7.399-37.648 34.382 6.965z"/>
            <path fill="#FFDFD5" d="M49.762 130.489c.135.262.493.939.987 1.883-5.257.517-4.523 6.12-13.305 8.222-5.927-8.624-1.152-32.495-1.152-32.495l15.029 5.301s-2.738 14.821-1.56 17.089"/>
            <path fill="#FFDFD5" d="M43.458 127.106c3.443 1.502 17.475 7.638 25.486 12.537 1.503.92 2.8 1.71 3.774 2.425a9.063 9.063 0 0 0-.393 4.014c-6.372 1.247-24.815-1.52-32.517-4.155-.697-.239-1.42-.607-2.153-1.055 3.112-4.155 5.2-8.992 5.803-13.766"/>
            <path fill="#9DD5F6" d="M195.14 135.129c0 .817-.662 1.48-1.48 1.48h-68.896a1.48 1.48 0 0 1-1.48-1.48V89.296c0-.817.664-1.478 1.48-1.478h68.897c.817 0 1.479.66 1.479 1.478v45.833z"/>
            <path fill="#AEAEAE" d="M194.855 135.311c0 .817-.662 1.48-1.48 1.48H124.48a1.48 1.48 0 0 1-1.479-1.48V89.478c0-.817.663-1.478 1.48-1.478h68.896c.817 0 1.48.66 1.48 1.478v45.833z"/>
            <path fill="#AEAEAE" d="M167.855 148.116a1.28 1.28 0 0 1-1.28 1.28H151.85c-.706 0-1.28-.574-1.28-1.28V107.58c0-.708.574-1.281 1.28-1.281h14.725c.707 0 1.28.573 1.28 1.28v40.537z"/>
            <circle cx="159.5" cy="112.5" r="4.5" fill="#FFF"/>
            <path fill="#A2A2A2" d="M150.57 141.322v9.405c0 .706.573 1.28 1.28 1.28h14.725c.706 0 1.28-.574 1.28-1.28v-9.405H150.57z"/>
            <path fill="#A2A2A2" d="M176.51 149.248c0 .816-.661 1.478-1.477 1.478h-31.64c-.817 0-1.479-.662-1.479-1.478v-1.48c0-.816.662-1.477 1.48-1.477h31.639c.816 0 1.478.661 1.478 1.478v1.479z"/>
            <path fill="#3D616C" d="M133.074 149.9c0 .942-.764 1.706-1.708 1.706H72.648a1.707 1.707 0 0 1-1.707-1.707v-1.707c0-.943.765-1.707 1.707-1.707h58.718c.944 0 1.708.764 1.708 1.707v1.707z"/>
            <path fill="#9BBDF7" d="M88.859 155.508s28.725-3.59 12.73 22.197c-15.994 25.787-24.807-3.59-24.807-3.59l12.077-18.607z"/>
            <path fill="#FFDFD5" d="M80.312 139.749c-1.712-1.648-14.63-.562-14.63-.562s4.179 2.472 2.19 2.148c.875 1.695 1.686 3.06 2.304 3.712 2.597 2.738 4.563-.909 4.563-.909 2.485 11.166 1.761-1.668 1.761-1.668 2.063 12.68 1.958-.444 1.958-.444 4.174 12.166 1.75.124 1.75.124 7.956 9.176.104-2.401.104-2.401M123.072 140.401c-1.711-1.647-14.628-.561-14.628-.561s4.178 2.472 2.188 2.148c.876 1.695 1.687 3.06 2.304 3.712 2.597 2.738 4.564-.909 4.564-.909 2.484 11.166 1.761-1.669 1.761-1.669 2.063 12.681 1.957-.444 1.957-.444 4.175 12.167 1.751.125 1.751.125 7.956 9.176.103-2.402.103-2.402"/>
            <path fill="#FFF" d="M185.805 247.283h19.35v-89.49h-19.35z"/>
            <path fill="#BEBEBE" d="M185.805 247.283h19.35v-89.49h-19.35zM387.858 247.283h18.696v-89.49h-18.696z"/>
            <path fill="#664B3C" d="M4.735 149.14v98.302h11.572v-86.86h189.792v86.86h11.573V149.14z"/>
            <path fill="#664B3C" d="M205.155 148.98v98.303h11.572v-86.861H406.52v86.86h11.572V148.98z"/>
            <path fill="#D5D5D5" d="M417.927 247.777H5.028c-.598 0-1.083-.353-1.083-.79 0-.436.485-.788 1.083-.788h412.9c.599 0 1.083.352 1.083.788 0 .437-.484.79-1.084.79"/>
        </g>
        <g filter="url(#d)" transform="translate(48.665)">
            <path fill="#286ADD" d="M210.996 40.314h-3.837c-11.131 0-20.156-9.024-20.156-20.157C187.003 9.024 196.028 0 207.16 0h3.837c11.132 0 20.157 9.024 20.157 20.157 0 11.133-9.025 20.157-20.157 20.157"/>
            <path fill="#9BBDF7" fill-rule="nonzero" d="M208.918 28.606l.784-.455c.254-.148.515-.307.783-.476.254-.142.477-.304.667-.487.19-.184.314-.403.37-.657.057-.254.043-.557-.042-.91-.084-.353-.275-.77-.571-1.25-.141-.24-.28-.476-.413-.709a22.171 22.171 0 0 0-.413-.688c.282-.07.54-.166.773-.286.233-.12.448-.258.646-.413a3.369 3.369 0 0 0 1.122-1.927c.07-.367.074-.74.01-1.122a2.93 2.93 0 0 0-.413-1.08l-1.926-3.197h-.022c-.338-.565-.487-.963-.444-1.196.042-.233.233-.449.571-.646.128-.085.262-.166.403-.244.141-.077.282-.151.423-.222a49.7 49.7 0 0 1-.497-.805 249.83 249.83 0 0 1-.498-.825c-.254.155-.515.31-.783.465-.269.156-.537.318-.805.487-.254.142-.476.3-.667.477-.19.176-.318.392-.381.646-.064.254-.053.554.032.9.084.345.268.758.55 1.238.155.24.293.473.413.699.12.226.25.452.392.678-.282.07-.54.158-.773.264a3.152 3.152 0 0 0-.646.392 2.83 2.83 0 0 0-.699.89c-.169.338-.282.694-.338 1.069a3.88 3.88 0 0 0 0 1.143c.056.388.176.752.36 1.09 0-.014.007 0 .02.043.015.042.075.155.18.339.107.183.276.465.509.847.233.38.561.91.985 1.588.225.367.395.67.508.91.113.24.173.441.18.604a.553.553 0 0 1-.127.402 1.544 1.544 0 0 1-.392.307l-.805.487.974 1.63zm.593-7.58a1.15 1.15 0 0 1-.54-.127 1.586 1.586 0 0 1-.423-.318 1.185 1.185 0 0 1-.265-.444 1.115 1.115 0 0 1-.042-.53c0-.38.14-.674.423-.878.283-.205.586-.315.91-.329.368.029.675.17.922.424s.363.557.35.91a1.289 1.289 0 0 1-.414.921c-.26.247-.568.37-.92.37z"/>
            <path fill="#286ADD" d="M201.965 37.13l6.95 11.27 7.527-11.27zM16.268 90.856h-2.601C6.119 90.856 0 84.736 0 77.189c0-7.548 6.119-13.667 13.667-13.667h2.6c7.548 0 13.667 6.119 13.667 13.667 0 7.547-6.119 13.667-13.666 13.667"/>
            <path fill="#9BBDF7" fill-rule="nonzero" d="M14.702 83.85l.642-.33c.208-.106.423-.22.643-.343.208-.102.39-.22.547-.352a.902.902 0 0 0 .304-.474c.046-.183.034-.402-.035-.657-.07-.255-.226-.556-.47-.902a62.266 62.266 0 0 1-.338-.512c-.11-.168-.223-.334-.338-.497a3.193 3.193 0 0 0 1.163-.505c.243-.183.443-.395.6-.634a2.26 2.26 0 0 0 .32-.757 1.97 1.97 0 0 0-.33-1.59l-1.58-2.308h-.017c-.278-.408-.4-.696-.365-.864.035-.168.191-.324.47-.466.103-.062.213-.12.33-.176.115-.056.23-.11.346-.16a35.471 35.471 0 0 1-.408-.582l-.408-.596c-.208.112-.422.224-.642.336-.22.113-.44.23-.66.352-.209.102-.39.217-.547.344a.914.914 0 0 0-.313.466c-.052.184-.043.4.026.65.07.25.22.548.452.894.127.174.24.342.338.505.099.163.206.326.322.49a4.05 4.05 0 0 0-.634.19c-.191.077-.368.171-.53.283a2.106 2.106 0 0 0-.573.642 2.361 2.361 0 0 0-.278.772 2.47 2.47 0 0 0 0 .826c.047.28.145.543.295.787 0-.01.006 0 .018.03.011.031.06.113.147.245.087.133.226.337.417.612.191.275.46.657.808 1.147.185.265.324.484.416.657.093.173.142.318.148.436a.37.37 0 0 1-.104.29c-.075.077-.182.15-.321.222l-.66.351.799 1.178zm.486-5.474c-.162 0-.31-.03-.443-.091a1.3 1.3 0 0 1-.347-.23.842.842 0 0 1-.217-.32.713.713 0 0 1-.035-.383.71.71 0 0 1 .347-.634 1.47 1.47 0 0 1 .747-.237c.3.02.553.122.755.305a.804.804 0 0 1 .287.658.885.885 0 0 1-.339.665 1.144 1.144 0 0 1-.755.267z"/>
            <path fill="#286ADD" d="M10.8 88.956l4.71 7.642 5.105-7.642zM306.639 89.236h-2.85c-8.27 0-14.974-6.704-14.974-14.974s6.704-14.974 14.974-14.974h2.85c8.27 0 14.974 6.704 14.974 14.974s-6.704 14.974-14.974 14.974"/>
            <path fill="#286ADD" d="M300.563 86.643l5.163 8.373 5.592-8.373z"/>
            <path fill="#9BBDF7" fill-rule="nonzero" d="M305.21 80.462l.643-.329c.209-.107.423-.222.643-.344.208-.102.39-.22.547-.352a.902.902 0 0 0 .304-.474c.046-.183.035-.402-.035-.657s-.226-.555-.469-.902a62.23 62.23 0 0 1-.338-.512 15.75 15.75 0 0 0-.34-.497 3.193 3.193 0 0 0 1.164-.504c.244-.184.443-.395.6-.635a2.26 2.26 0 0 0 .32-.757 1.97 1.97 0 0 0-.33-1.59l-1.58-2.308h-.017c-.278-.408-.4-.696-.364-.864.034-.168.19-.324.468-.466.105-.061.215-.12.33-.176.116-.056.232-.11.348-.16a35.475 35.475 0 0 1-.408-.582c-.134-.193-.27-.392-.409-.596-.208.112-.422.224-.642.337-.22.112-.44.229-.66.351-.208.102-.39.217-.547.344a.914.914 0 0 0-.313.466c-.052.184-.043.4.026.65.07.25.22.548.452.895.127.173.24.341.339.504.098.163.205.326.32.49a4.05 4.05 0 0 0-.633.19c-.191.077-.368.171-.53.283a2.106 2.106 0 0 0-.573.642 2.361 2.361 0 0 0-.278.772 2.47 2.47 0 0 0 0 .826c.047.28.145.543.296.787a2.06 2.06 0 0 0 .165.275c.086.133.225.337.416.612.191.275.46.657.808 1.147.185.265.324.484.417.657.092.173.142.319.147.436a.37.37 0 0 1-.104.29c-.075.077-.182.15-.321.222l-.66.352.799 1.177zm.487-5.473c-.162 0-.31-.031-.443-.092a1.3 1.3 0 0 1-.347-.23.842.842 0 0 1-.217-.32.713.713 0 0 1-.035-.383.71.71 0 0 1 .347-.634 1.47 1.47 0 0 1 .747-.237c.301.02.553.122.756.306a.804.804 0 0 1 .286.657.885.885 0 0 1-.339.665 1.144 1.144 0 0 1-.755.268z"/>
        </g>
    </g>
</svg>
